<svg width="20" height="22" viewBox="0 0 20 22" fill="none" xmlns="http://www.w3.org/2000/svg">
<path d="M6 4.75C5.59 4.75 5.25 4.41 5.25 4V1C5.25 0.59 5.59 0.25 6 0.25C6.41 0.25 6.75 0.59 6.75 1V4C6.75 4.41 6.41 4.75 6 4.75Z" fill="#54585C"/>
<path d="M14 4.75C13.59 4.75 13.25 4.41 13.25 4V1C13.25 0.59 13.59 0.25 14 0.25C14.41 0.25 14.75 0.59 14.75 1V4C14.75 4.41 14.41 4.75 14 4.75Z" fill="#54585C"/>
<path d="M13 21.75H7C1.38 21.75 0.25 19.1 0.25 14.82V8.65C0.25 3.91 1.85 1.98 5.96 1.75H14C14.01 1.75 14.03 1.75 14.04 1.75C18.15 1.98 19.75 3.91 19.75 8.65V14.82C19.75 19.1 18.62 21.75 13 21.75ZM6 3.25C3.2 3.41 1.75 4.29 1.75 8.65V14.82C1.75 18.65 2.48 20.25 7 20.25H13C17.52 20.25 18.25 18.65 18.25 14.82V8.65C18.25 4.3 16.81 3.41 13.98 3.25H6Z" fill="#54585C"/>
<path d="M18.75 17.3501H1.25C0.84 17.3501 0.5 17.0101 0.5 16.6001C0.5 16.1901 0.84 15.8501 1.25 15.8501H18.75C19.16 15.8501 19.5 16.1901 19.5 16.6001C19.5 17.0101 19.16 17.3501 18.75 17.3501Z" fill="#54585C"/>
<path d="M10 7.25C8.77 7.25 7.73 7.92 7.73 9.22C7.73 9.84 8.02 10.31 8.46 10.61C7.85 10.97 7.5 11.55 7.5 12.23C7.5 13.47 8.45 14.24 10 14.24C11.54 14.24 12.5 13.47 12.5 12.23C12.5 11.55 12.15 10.96 11.53 10.61C11.98 10.3 12.26 9.84 12.26 9.22C12.26 7.92 11.23 7.25 10 7.25ZM10 10.09C9.48 10.09 9.1 9.78 9.1 9.29C9.1 8.79 9.48 8.5 10 8.5C10.52 8.5 10.9 8.79 10.9 9.29C10.9 9.78 10.52 10.09 10 10.09ZM10 13C9.34 13 8.86 12.67 8.86 12.07C8.86 11.47 9.34 11.15 10 11.15C10.66 11.15 11.14 11.48 11.14 12.07C11.14 12.67 10.66 13 10 13Z" fill="#54585C"/>
</svg>
