<svg width="45" height="29" viewBox="0 0 45 29" fill="none" xmlns="http://www.w3.org/2000/svg">
<path fill-rule="evenodd" clip-rule="evenodd" d="M43.777 22.7274V16.6696L35.4836 13.2728H5.08456L1.59515 9.15747V22.7274C1.59515 23.5307 2.24637 24.1819 3.0497 24.1819H42.3225C43.1258 24.1819 43.777 23.5307 43.777 22.7274Z" fill="#F38141"/>
<path fill-rule="evenodd" clip-rule="evenodd" d="M1.34515 8.90918L4.98152 13.2728H35.527L43.527 16.9092V5.27282L41.3452 1.63645L38.4361 0.90918H6.43606L2.7997 2.36373L1.34515 6.00009V8.90918Z" fill="white"/>
<path d="M6.4361 0.181885H38.4361C41.6493 0.181885 44.2543 2.78677 44.2543 6.00007V22.0001C44.2543 23.6068 42.9519 24.9092 41.3452 24.9092H3.52701C1.92038 24.9092 0.61792 23.6068 0.61792 22.0001V6.00007C0.61792 2.78677 3.22282 0.181885 6.4361 0.181885ZM6.4361 1.63643C4.02614 1.63643 2.07247 3.5901 2.07247 6.00007V22.0001C2.07247 22.8034 2.72369 23.4546 3.52701 23.4546H41.3452C42.1485 23.4546 42.7997 22.8034 42.7997 22.0001V6.00007C42.7997 3.5901 40.8461 1.63643 38.4361 1.63643H6.4361Z" fill="#333333"/>
<path d="M42.0724 27.0908H2.79972C2.39806 27.0908 2.07245 27.4165 2.07245 27.8181C2.07245 28.2197 2.39806 28.5454 2.79972 28.5454H42.0724C42.474 28.5454 42.7997 28.2197 42.7997 27.8181C42.7997 27.4165 42.474 27.0908 42.0724 27.0908Z" fill="#333333"/>
<path d="M1.0412 9.62776L3.65919 12.7155C4.35012 13.5303 5.36441 14.0001 6.43278 14.0001H34.9117C35.1954 14.0001 35.4762 14.0554 35.7388 14.1629L43.5021 17.3427L44.0534 15.9966L36.29 12.8169C35.8527 12.6377 35.3844 12.5456 34.9117 12.5456H6.43278C5.79176 12.5456 5.18318 12.2637 4.76863 11.7748L1.52011 7.94922L1.0412 9.62776Z" fill="#333333"/>
<path d="M11.527 20.5454C10.5228 20.5454 9.61375 20.9524 8.9557 21.6104C8.29765 22.2685 7.89062 23.1776 7.89062 24.1818C7.89062 25.186 8.29765 26.0951 8.9557 26.7531C9.61375 27.4112 10.5228 27.8181 11.527 27.8181C12.5311 27.8181 13.4403 27.4112 14.0983 26.7531C14.7564 26.0951 15.1634 25.186 15.1634 24.1818C15.1634 23.1776 14.7564 22.2685 14.0983 21.6104C13.4403 20.9524 12.5311 20.5454 11.527 20.5454Z" fill="white" stroke="#333333"/>
<path d="M38.4361 17.6362H44.2542V21.9999H38.4361C37.6327 21.9999 36.9815 21.3487 36.9815 20.5453V19.0908C36.9815 18.2874 37.6327 17.6362 38.4361 17.6362Z" fill="#333333"/>
<path d="M42.7997 19.0908H38.4361V20.5454H42.7997V19.0908Z" fill="white"/>
<path d="M31.8906 20.5454C30.8864 20.5454 29.9773 20.9524 29.3193 21.6104C28.6613 22.2685 28.2543 23.1776 28.2543 24.1818C28.2543 25.186 28.6613 26.0951 29.3193 26.7531C29.9773 27.4112 30.8864 27.8181 31.8906 27.8181C32.8949 27.8181 33.8039 27.4112 34.462 26.7531C35.12 26.0951 35.527 25.186 35.527 24.1818C35.527 23.1776 35.12 22.2685 34.462 21.6104C33.8039 20.9524 32.8949 20.5454 31.8906 20.5454Z" fill="white" stroke="#333333"/>
<path d="M18.0725 8.18186C18.0725 7.78026 17.7468 7.45459 17.3452 7.45459C16.9436 7.45459 16.6179 7.78026 16.6179 8.18186V12.5455C16.6179 12.9471 16.9436 13.2728 17.3452 13.2728C17.7468 13.2728 18.0725 12.9471 18.0725 12.5455V8.18186Z" fill="#333333"/>
<path d="M31.1633 1.63623H29.7088V13.2726H31.1633V1.63623Z" fill="#333333"/>
</svg>
