<svg width="22" height="22" viewBox="0 0 22 22" fill="none" xmlns="http://www.w3.org/2000/svg">
<path d="M13.9 21.75H8.10001C7.21001 21.75 6.07 21.28 5.45 20.65L1.35001 16.55C0.72001 15.92 0.25 14.78 0.25 13.9V8.10001C0.25 7.21001 0.72001 6.07001 1.35001 5.45001L5.45 1.35001C6.08 0.72001 7.22001 0.25 8.10001 0.25H13.9C14.79 0.25 15.93 0.72001 16.55 1.35001L20.65 5.45001C21.28 6.08001 21.75 7.22001 21.75 8.10001V13.9C21.75 14.79 21.28 15.93 20.65 16.55L16.55 20.65C15.92 21.28 14.79 21.75 13.9 21.75ZM8.10001 1.75C7.61001 1.75 6.84999 2.06 6.50999 2.41L2.41 6.51001C2.07 6.86001 1.75 7.61001 1.75 8.10001V13.9C1.75 14.39 2.06 15.15 2.41 15.49L6.50999 19.59C6.85999 19.93 7.61001 20.25 8.10001 20.25H13.9C14.39 20.25 15.15 19.94 15.49 19.59L19.59 15.49C19.93 15.14 20.25 14.39 20.25 13.9V8.10001C20.25 7.61001 19.94 6.85001 19.59 6.51001L15.49 2.41C15.14 2.07 14.39 1.75 13.9 1.75H8.10001Z" fill="#54585C"/>
<path d="M7.49994 15.2499C7.30994 15.2499 7.11994 15.1799 6.96994 15.0299C6.67994 14.7399 6.67994 14.2599 6.96994 13.9699L13.9699 6.96994C14.2599 6.67994 14.7399 6.67994 15.0299 6.96994C15.3199 7.25994 15.3199 7.73994 15.0299 8.02994L8.02994 15.0299C7.87994 15.1799 7.68994 15.2499 7.49994 15.2499Z" fill="#54585C"/>
<path d="M14.4999 15.2499C14.3099 15.2499 14.1199 15.1799 13.9699 15.0299L6.96994 8.02994C6.67994 7.73994 6.67994 7.25994 6.96994 6.96994C7.25994 6.67994 7.73994 6.67994 8.02994 6.96994L15.0299 13.9699C15.3199 14.2599 15.3199 14.7399 15.0299 15.0299C14.8799 15.1799 14.6899 15.2499 14.4999 15.2499Z" fill="#54585C"/>
</svg>
