<svg xmlns="http://www.w3.org/2000/svg" width="37" height="42" fill="none" viewBox="0 0 37 42"><path fill="#A0E1E9" fill-rule="evenodd" stroke="#333" stroke-width="1.5" d="M3.52041 40.9091C2.47138 40.9091 1.61792 40.0753 1.61792 39.0506V24.7217C1.61792 23.0644 2.09233 21.4452 2.98979 20.039L7.4361 14H11.7997L17.2664 19.9322C18.4312 21.3953 19.0725 23.2212 19.0725 25.0748V39.0506C19.0725 40.0753 18.2191 40.9091 17.1701 40.9091H3.52041Z" clip-rule="evenodd"/><path fill-rule="evenodd" stroke="#333" stroke-width="1.5" d="M7.43604 13.9999H11.7997V9.63623H7.43604V13.9999Z" clip-rule="evenodd"/><path fill-rule="evenodd" stroke="#333" stroke-width="1.5" d="M18.3452 5.99987H22.7089V1.63623H18.3452V5.99987Z" clip-rule="evenodd"/><path fill="#fff" fill-rule="evenodd" stroke="#333" d="M7.43604 34.3635H19.0724V25.6362H7.43604V34.3635Z" clip-rule="evenodd"/><path fill-rule="evenodd" stroke="#333" stroke-linecap="round" stroke-linejoin="round" stroke-width="1.5" d="M29.9766 17.403L29.9815 18.3636L29.9769 17.4683C29.961 14.3435 32.5551 11.7978 35.7709 11.7823C35.7805 11.7822 35.7901 11.7822 35.7997 11.7822C32.5817 11.7822 29.9686 9.25567 29.9523 6.12872L29.9479 5.27271V6.1613C29.9479 9.26558 27.358 11.7822 24.1634 11.7822C27.3626 11.7822 29.9607 14.2941 29.9766 17.403ZM24.1572 36.0986L24.1634 37.2727L24.1577 36.1785C24.1376 32.3591 27.3802 29.2478 31.4 29.2289C31.4119 29.2288 31.424 29.2288 31.4361 29.2288C27.4135 29.2288 24.1471 26.1408 24.1268 22.319L24.1213 21.2727V22.3588C24.1213 26.153 20.8841 29.2288 16.8906 29.2288C20.8899 29.2288 24.1373 32.299 24.1572 36.0986Z" clip-rule="evenodd"/><path fill="#A0E1E9" fill-rule="evenodd" stroke="#333" stroke-width="1.5" d="M2.34521 10.3635V9.25447C2.34521 5.05371 5.95438 1.63623 10.3905 1.63623H18.3452V5.99987L14.3573 10.3635H2.34521Z" clip-rule="evenodd"/></svg>