<svg xmlns="http://www.w3.org/2000/svg" width="22" height="22" fill="none" viewBox="0 0 22 22"><path fill="#C42525" d="M9.8 21.0999C9.51 21.0999 9.22 21.0499 8.95004 20.9499C7.70004 20.5399 6.90004 19.1599 7.18004 17.8799L7.67004 14.7299C7.68004 14.6599 7.68004 14.5599 7.61004 14.4799C7.56004 14.4299 7.49004 14.3999 7.41004 14.3999H3.41004C2.43004 14.3999 1.58004 13.9899 1.08004 13.2799C0.590039 12.5899 0.490039 11.6799 0.810039 10.7999L3.20004 3.5199C3.57004 2.0699 5.12004 0.899902 6.72004 0.899902H10.52C11.08 0.899902 12.3 1.0699 12.95 1.7199L15.98 4.0599L15.06 5.2499L11.96 2.8499C11.71 2.5999 11.08 2.3999 10.52 2.3999H6.72004C5.82004 2.3999 4.85004 3.1199 4.65004 3.9299L2.23004 11.2799C2.07004 11.7199 2.10004 12.1199 2.31004 12.4099C2.53004 12.7199 2.93004 12.8999 3.42004 12.8999H7.42004C7.94004 12.8999 8.42004 13.1199 8.75004 13.4999C9.09 13.8899 9.24 14.4099 9.16 14.9499L8.66004 18.1599C8.54004 18.7199 8.92004 19.3499 9.46 19.5299C9.94 19.7099 10.58 19.4499 10.8 19.1299L14.9 13.0299L16.14 13.8699L12.04 19.9699C11.57 20.6699 10.68 21.0999 9.8 21.0999Z"/><path fill="#C42525" d="M18.6201 17.1H17.6201C15.7701 17.1 14.8701 16.23 14.8701 14.45V4.65C14.8701 2.87 15.7701 2 17.6201 2H18.6201C20.4701 2 21.3701 2.87 21.3701 4.65V14.45C21.3701 16.23 20.4701 17.1 18.6201 17.1ZM17.6201 3.5C16.5301 3.5 16.3701 3.76 16.3701 4.65V14.45C16.3701 15.34 16.5301 15.6 17.6201 15.6H18.6201C19.7101 15.6 19.8701 15.34 19.8701 14.45V4.65C19.8701 3.76 19.7101 3.5 18.6201 3.5H17.6201Z"/></svg>