<svg width="102" height="102" viewBox="0 0 102 102" fill="none" xmlns="http://www.w3.org/2000/svg">
<path d="M66.7585 28.0339L54.5545 45.3679C54.0955 46.0226 53.3665 46.3736 52.624 46.3736C52.1515 46.3736 51.679 46.2319 51.2673 45.9416C50.2008 45.1924 49.9443 43.7141 50.6935 42.6476L51.382 41.6689C50.9568 41.2909 50.5315 40.9129 50.0995 40.5484C49.384 39.9206 48.6618 39.3199 47.9463 38.7394L48.1893 38.4356C48.9318 37.1464 49.5258 35.7626 49.978 34.3181C50.2885 34.5611 50.6058 34.8176 50.923 35.0741C51.5575 35.5871 52.1988 36.1204 52.8333 36.6671C53.2653 37.0316 53.6905 37.4029 54.1158 37.7809L62.8908 25.3136C63.6468 24.2471 65.1183 23.9906 66.1848 24.7399C67.2513 25.4959 67.5078 26.9674 66.7585 28.0339Z" fill="#54585C"/>
<path d="M87.7241 64.4231C87.3191 64.6931 86.8668 64.8213 86.4146 64.8213C85.6518 64.8213 84.9026 64.4501 84.4503 63.7683C82.3241 60.5823 79.2461 58.7733 75.3041 58.3818C73.9068 58.2401 72.5568 58.3008 71.3351 58.4628C69.6611 58.6923 68.2166 59.1311 67.1703 59.5563C66.2928 59.9208 65.6921 60.2718 65.4693 60.4946C64.5513 61.4126 63.0528 61.4126 62.1348 60.4946C61.2101 59.5698 61.2101 58.0713 62.1348 57.1533C62.6681 56.6201 63.4443 56.0936 64.3961 55.6143C63.8966 54.9596 63.3701 54.2913 62.8233 53.6163H62.8166C60.7983 51.1256 58.5371 48.6146 56.0801 46.1373L57.6528 43.9031L58.8408 42.2156L59.0906 42.4653C61.7906 45.1653 64.2746 47.9126 66.4886 50.6328C67.4336 51.8006 68.3111 52.9413 69.1143 54.0483C71.1866 53.6231 73.4883 53.4476 75.7698 53.6771C81.1158 54.2103 85.4763 56.7888 88.3788 61.1493C89.1011 62.2361 88.8108 63.7008 87.7241 64.4231Z" fill="#54585C"/>
<path d="M87.2933 22.2929L67.1452 39.7025C66.1577 40.5557 66.049 42.0481 66.9022 43.0349C67.3693 43.5763 68.0281 43.853 68.691 43.853C69.2384 43.853 69.7878 43.664 70.234 43.2779L90.3821 25.8683C91.3696 25.0151 91.4783 23.5234 90.6251 22.5359C89.7719 21.549 88.2795 21.4397 87.2933 22.2929Z" fill="#54585C"/>
<path d="M101.458 40.4835C101.26 39.8726 100.731 39.4278 100.095 39.3353L94.8451 38.5719L92.4967 33.8145C92.2119 33.238 91.6253 32.8735 90.9834 32.8735C90.3408 32.8735 89.7549 33.2387 89.47 33.8145L87.1224 38.5719L81.8722 39.3353C81.237 39.4278 80.7078 39.8726 80.5094 40.4835C80.3109 41.0944 80.4763 41.7646 80.9367 42.2135L84.7356 45.9166L83.8392 51.1458C83.7305 51.7789 83.9911 52.4188 84.5101 52.7962C85.0292 53.1735 85.7197 53.2241 86.2874 52.9244L90.9834 50.4553L95.68 52.9244C95.9264 53.054 96.1964 53.1181 96.4651 53.1181C96.8147 53.1181 97.163 53.0095 97.457 52.7955C97.977 52.4175 98.237 51.7783 98.128 51.1451L97.232 45.9159L101.031 42.2128C101.491 41.7646 101.656 41.0944 101.458 40.4835ZM94.2403 44.119C93.8427 44.5065 93.6611 45.0647 93.7549 45.6128L94.2234 48.3466L91.7677 47.056C91.522 46.927 91.252 46.8622 90.9827 46.8622C90.7134 46.8622 90.4434 46.927 90.1977 47.056L87.7427 48.3466L88.2112 45.6128C88.3057 45.0647 88.1234 44.5065 87.7258 44.119L85.74 42.1831L88.4845 41.7842C89.034 41.7046 89.5099 41.359 89.7556 40.8615L90.982 38.3741L92.2092 40.8615C92.4549 41.3596 92.9301 41.7046 93.4802 41.7842L96.2248 42.1831L94.2403 44.119Z" fill="#54585C"/>
<path d="M16.1457 13.9412L15.2487 19.1711C15.14 19.8043 15.4005 20.4442 15.9203 20.8215C16.4394 21.1988 17.1279 21.2488 17.6976 20.9497L22.3935 18.4806L27.0895 20.9497C27.3366 21.0793 27.6059 21.1435 27.8745 21.1435C28.2249 21.1435 28.5732 21.0348 28.8668 20.8208C29.3865 20.4435 29.6471 19.8036 29.5384 19.1704L28.6413 13.9412L32.4409 10.2382C32.9006 9.79 33.0666 9.119 32.8675 8.5081C32.6691 7.8973 32.1412 7.4518 31.5054 7.3593L26.2552 6.59654L23.9069 1.83914C23.6227 1.26269 23.0361 0.898193 22.3935 0.898193C21.7509 0.898193 21.1644 1.26269 20.8802 1.83914L18.5319 6.59654L13.2817 7.3593C12.6459 7.4518 12.118 7.8966 11.9196 8.5081C11.7211 9.119 11.8865 9.7893 12.3462 10.2382L16.1457 13.9412ZM19.8954 9.8095C20.4448 9.7292 20.9207 9.3843 21.1657 8.8861L22.3929 6.39877L23.62 8.8861C23.8657 9.3843 24.3409 9.7292 24.8904 9.8095L27.6349 10.2085L25.6491 12.1444C25.2515 12.5318 25.0699 13.0907 25.1637 13.6381L25.6322 16.3712L23.1779 15.0806C22.6858 14.8221 22.0986 14.8221 21.6072 15.0806L19.1522 16.3712L19.6206 13.6375C19.7145 13.09 19.5336 12.5318 19.1353 12.1444L17.1495 10.2085L19.8954 9.8095Z" fill="#54585C"/>
<path d="M72.9279 60.0152C70.9501 60.1165 69.2289 60.5822 68.0814 61.021C69.4314 63.3295 69.9916 64.8212 70.2211 65.6852C70.3453 66.1564 70.3865 66.4729 70.3953 66.6829L70.3521 66.7018C70.1415 66.6923 69.8269 66.6559 69.3774 66.5357C68.4526 66.286 66.8259 65.6717 64.2811 64.1327C62.1346 62.83 59.7856 61.1492 57.3016 59.131C54.7029 57.025 52.0771 54.649 49.4986 52.0637C46.9134 49.4785 44.5374 46.8527 42.4314 44.2607C40.4131 41.7767 38.7256 39.4277 37.4296 37.2812C35.8906 34.7365 35.2764 33.1097 35.0266 32.185C34.9058 31.7334 34.87 31.4182 34.8606 31.2076L34.8781 31.1671C35.082 31.1758 35.4046 31.2163 35.8704 31.3412C36.7951 31.5842 38.4286 32.1985 40.9734 33.7442C41.1084 33.8252 41.2501 33.913 41.3919 34.0075C41.857 34.2903 42.3288 34.5934 42.8067 34.9241C42.4813 35.5336 42.1175 36.1182 41.7071 36.6643C40.9228 37.7071 41.1327 39.1881 42.1756 39.9724C42.6008 40.2924 43.0996 40.4463 43.5937 40.4463C44.3113 40.4463 45.0193 40.1209 45.4837 39.504C46.3903 38.2984 47.1402 36.9707 47.7322 35.5579C47.7585 35.4945 47.7808 35.4297 47.8071 35.3662C47.9286 35.0679 48.0454 34.7675 48.152 34.4624C48.1972 34.3342 48.2357 34.2032 48.2782 34.0743C48.3572 33.8333 48.4355 33.5923 48.5057 33.348C48.5185 33.3041 48.5341 33.2623 48.5462 33.2184C48.5442 33.217 48.5428 33.2157 48.5408 33.2143C49.5425 29.6321 49.61 25.6665 48.6448 21.7994C47.288 16.363 44.1263 12.018 40.1863 10.1773C39.0051 9.62439 37.5977 10.1354 37.0462 11.3173C36.4941 12.4993 37.0044 13.9053 38.1863 14.4574C40.8094 15.6832 43.0605 18.934 44.0602 22.9422C44.6791 25.4228 44.7709 27.9412 44.3713 30.2902C44.37 30.2896 44.3686 30.2882 44.3673 30.2875C44.0433 30.085 43.726 29.8893 43.4155 29.7003C40.9923 28.2288 38.8593 27.2433 37.084 26.7708C34.6 26.116 32.6898 26.4333 31.4073 27.7158C30.787 28.3361 30.3982 29.1029 30.2281 30.0054L0.656321 97.794C0.267521 98.685 0.463952 99.722 1.1511 100.409C1.60335 100.862 2.20815 101.101 2.8224 101.101C3.141 101.101 3.4623 101.036 3.76605 100.904L71.5286 71.3424C72.4446 71.175 73.2202 70.7781 73.8452 70.153C75.1277 68.8705 75.445 66.9603 74.7902 64.4763C74.4466 63.1742 73.8189 61.6825 72.9279 60.0152ZM33.3864 39.7315C34.7971 42.0602 36.6061 44.5847 38.7594 47.2375C40.9734 49.9577 43.4574 52.705 46.1574 55.405C48.8506 58.105 51.6046 60.589 54.3249 62.803C56.9776 64.9562 59.5021 66.7652 61.8309 68.1692C62.6139 68.6444 63.3625 69.0636 64.0827 69.4369L57.1376 72.4669C45.641 72.8287 34.4738 69.1844 28.2233 62.9292C25.9108 60.6146 24.5081 58.1259 24.149 55.76L32.1241 37.479C32.4961 38.1979 32.9132 38.9471 33.3864 39.7315ZM29.7859 84.3982C23.7285 84.2248 19.0852 82.7499 16.5877 80.1754C15.6892 79.2493 15.1067 78.2004 14.8455 77.0853L22.1517 60.3379C23.0177 62.051 24.255 63.7311 25.8365 65.3133C30.4191 69.8992 38.7891 74.4582 49.9529 75.6003L29.7859 84.3982ZM13.0601 81.1792C13.3875 81.6449 13.7493 82.0978 14.1658 82.5271C15.8134 84.2254 18.6795 86.1256 23.5624 87.1144L7.3942 94.1682L13.0601 81.1792Z" fill="#54585C"/>
<path d="M82.3863 16.8584C86.1123 16.8584 89.1438 13.8269 89.1438 10.1009C89.1438 6.37493 86.1123 3.34351 82.3863 3.34351C78.6603 3.34351 75.6289 6.37493 75.6289 10.1009C75.6289 13.8269 78.6603 16.8584 82.3863 16.8584ZM82.3863 6.71851C84.2514 6.71851 85.7688 8.2359 85.7688 10.1009C85.7688 11.966 84.2514 13.4834 82.3863 13.4834C80.5213 13.4834 79.0039 11.966 79.0039 10.1009C79.0039 8.2359 80.5213 6.71851 82.3863 6.71851Z" fill="#54585C"/>
<path d="M58.6819 20.4427C61.9989 20.4427 64.6968 17.7447 64.6968 14.4278C64.6968 11.1108 61.9989 8.41284 58.6819 8.41284C55.365 8.41284 52.667 11.1108 52.667 14.4278C52.667 17.7447 55.3656 20.4427 58.6819 20.4427ZM58.6819 11.7885C60.1372 11.7885 61.3218 12.9725 61.3218 14.4284C61.3218 15.8844 60.1379 17.0684 58.6819 17.0684C57.2259 17.0684 56.042 15.8844 56.042 14.4284C56.042 12.9725 57.2266 11.7885 58.6819 11.7885Z" fill="#04AA6D"/>
<path d="M87.4563 72.5002C84.1394 72.5002 81.4414 75.1982 81.4414 78.5145C81.4414 81.8314 84.1394 84.5294 87.4563 84.5294C90.7726 84.5294 93.4706 81.8314 93.4706 78.5145C93.4706 75.1982 90.7726 72.5002 87.4563 72.5002ZM87.4563 81.1544C86.001 81.1544 84.8164 79.9698 84.8164 78.5145C84.8164 77.0592 86.001 75.8752 87.4563 75.8752C88.9116 75.8752 90.0956 77.0592 90.0956 78.5145C90.0956 79.9698 88.9116 81.1544 87.4563 81.1544Z" fill="#04AA6D"/>
</svg>
