<svg width="41" height="41" viewBox="0 0 41 41" fill="none" xmlns="http://www.w3.org/2000/svg">
<path d="M8.95007 0.920074C9.21207 0.579463 9.70051 0.545398 10.0078 0.817893L10.103 0.920074L17.3757 10.3746C17.7173 10.8187 17.4477 11.4475 16.9244 11.5351L16.7993 11.5453H14.3397L18.9043 20.6746C19.1088 21.0838 18.8886 21.5541 18.4885 21.6892L18.375 21.7174L18.2538 21.7271H10.2529L10.2538 29.9696H8.79925L8.79831 21.7271H0.799245C0.300191 21.7271 -0.0378018 21.2423 0.103318 20.7875L0.148758 20.6746L4.71197 11.5453H2.25379C1.7366 11.5453 1.41222 11.0366 1.56176 10.5901L1.60919 10.4801L1.67734 10.3746L8.95007 0.920074ZM30.7565 0.93574C31.0179 0.576336 31.5264 0.540394 31.8373 0.827929L31.9328 0.93574L37.751 8.93574C38.0757 9.38211 37.8028 9.99544 37.2863 10.0808L37.1629 10.0908H35.4306L39.2679 17.7655C39.4725 18.1747 39.2522 18.645 38.8521 18.7801L38.7386 18.8083L38.6175 18.8181H32.071L32.072 24.1514H30.6175L30.6165 18.8181H24.072C23.573 18.8181 23.2349 18.3333 23.376 17.8783L23.4215 17.7655L27.2575 10.0908H25.5266C25.017 10.0908 24.6919 9.59536 24.8297 9.15109L24.8739 9.0414L24.9383 8.93574L30.7565 0.93574Z" fill="black"/>
<path d="M9.52638 2.55469L15.3227 10.0907H13.1627L13.0416 10.1005C12.5715 10.1777 12.289 10.6968 12.5123 11.1432L17.0755 20.2724H1.97583L6.5405 11.1432L6.58595 11.0304C6.72707 10.5755 6.38907 10.0907 5.89001 10.0907H3.72856L9.52638 2.55469ZM31.3446 2.59978L35.7344 8.63614H34.2536L34.1325 8.64595C33.6624 8.72317 33.3799 9.24229 33.6032 9.68865L37.4391 17.3633H25.2486L29.0859 9.68865L29.1315 9.57585C29.2726 9.12093 28.9345 8.63614 28.4355 8.63614H26.9533L31.3446 2.59978Z" fill="#71C865"/>
<path fill-rule="evenodd" clip-rule="evenodd" d="M9.52662 2.55469L13.0858 7.1816H5.96735L9.52662 2.55469Z" fill="white"/>
<path d="M31.344 2.6001L34.1455 6.45319H28.5425L31.344 2.6001Z" fill="white"/>
<path fill-rule="evenodd" clip-rule="evenodd" d="M0.0724487 40.6362V31.9089C2.85742 30.8423 6.83706 29.9691 9.99633 29.9691C11.5379 29.9691 13.0774 30.1445 14.591 30.4696L14.5916 30.3924C19.7444 26.4767 26.1716 24.1514 33.1418 24.1514C35.4594 24.1514 38.6295 24.1495 40.7997 24.6362V40.6362H0.0724487Z" fill="#377E64"/>
<path d="M33.1407 23.4241L35.1338 23.4347L35.3689 23.4389C37.3285 23.4783 38.8457 23.6159 40.2304 23.9266C40.6223 24.0145 40.8688 24.4034 40.7808 24.7954C40.693 25.1873 40.304 25.4338 39.912 25.3458C38.767 25.0889 37.4947 24.9583 35.8879 24.9073L34.647 24.883L33.1407 24.8786C27.0566 24.8786 21.2495 26.6975 16.3382 30.0315C21.8713 31.4361 26.7932 34.653 30.3485 39.2132C30.5955 39.53 30.5389 39.9868 30.2221 40.2338C29.9053 40.4808 29.4485 40.4242 29.2015 40.1074C24.6044 34.2111 17.5922 30.6964 9.99512 30.6964C7.24206 30.6964 4.20725 31.3822 1.05864 32.5881C0.683542 32.7317 0.263019 32.5441 0.119354 32.1691C-0.0243118 31.794 0.163295 31.3735 0.538394 31.2297C3.83986 29.9653 7.0414 29.2418 9.99512 29.2418C11.492 29.2418 12.9676 29.3707 14.4092 29.6204L14.1503 29.8133C19.5738 25.692 26.1866 23.4241 33.1407 23.4241Z" fill="black"/>
</svg>
