<svg xmlns="http://www.w3.org/2000/svg" width="22" height="20" fill="none" viewBox="0 0 22 20"><path fill="#292D32" d="M21 5.25H15C14.59 5.25 14.25 4.91 14.25 4.5C14.25 4.09 14.59 3.75 15 3.75H21C21.41 3.75 21.75 4.09 21.75 4.5C21.75 4.91 21.41 5.25 21 5.25Z"/><path fill="#292D32" d="M5 5.25H1C0.59 5.25 0.25 4.91 0.25 4.5C0.25 4.09 0.59 3.75 1 3.75H5C5.41 3.75 5.75 4.09 5.75 4.5C5.75 4.91 5.41 5.25 5 5.25Z"/><path fill="#292D32" d="M9 8.75C6.66 8.75 4.75 6.84 4.75 4.5C4.75 2.16 6.66 0.25 9 0.25C11.34 0.25 13.25 2.16 13.25 4.5C13.25 6.84 11.34 8.75 9 8.75ZM9 1.75C7.48 1.75 6.25 2.98 6.25 4.5C6.25 6.02 7.48 7.25 9 7.25C10.52 7.25 11.75 6.02 11.75 4.5C11.75 2.98 10.52 1.75 9 1.75Z"/><path fill="#292D32" d="M21 16.25H17C16.59 16.25 16.25 15.91 16.25 15.5C16.25 15.09 16.59 14.75 17 14.75H21C21.41 14.75 21.75 15.09 21.75 15.5C21.75 15.91 21.41 16.25 21 16.25Z"/><path fill="#292D32" d="M7 16.25H1C0.59 16.25 0.25 15.91 0.25 15.5C0.25 15.09 0.59 14.75 1 14.75H7C7.41 14.75 7.75 15.09 7.75 15.5C7.75 15.91 7.41 16.25 7 16.25Z"/><path fill="#292D32" d="M13 19.75C10.66 19.75 8.75 17.84 8.75 15.5C8.75 13.16 10.66 11.25 13 11.25C15.34 11.25 17.25 13.16 17.25 15.5C17.25 17.84 15.34 19.75 13 19.75ZM13 12.75C11.48 12.75 10.25 13.98 10.25 15.5C10.25 17.02 11.48 18.25 13 18.25C14.52 18.25 15.75 17.02 15.75 15.5C15.75 13.98 14.52 12.75 13 12.75Z"/></svg>