<svg xmlns="http://www.w3.org/2000/svg" width="20" height="22" fill="none" viewBox="0 0 20 22"><path fill="#292D32" d="M6.58023 21.5501C6.36023 21.5501 6.13023 21.5101 5.92023 21.4201C5.45023 21.2201 5.09023 20.8301 4.93023 20.3401L4.49023 19.0201C4.29023 18.4201 4.47023 17.6701 4.91023 17.2201L7.18023 14.9401C7.21024 14.9101 7.25023 14.8001 7.25023 14.7501V12.2801L2.69023 14.2501C2.08023 14.5101 1.46023 14.4801 0.990234 14.1701C0.520234 13.8601 0.240234 13.3001 0.240234 12.6501V11.3601C0.240234 10.3801 0.940234 9.3301 1.83023 8.98007L7.24023 6.64007V3.80007C7.24023 2.59007 8.0902 1.20007 9.1702 0.640068C9.6902 0.380068 10.2902 0.380068 10.8002 0.640068C11.8902 1.20007 12.7402 2.58007 12.7402 3.79007V6.63007L18.1802 8.97007C19.0702 9.3501 19.7502 10.3701 19.7502 11.3601V12.6501C19.7502 13.3101 19.4802 13.8601 19.0002 14.1701C18.5202 14.4801 17.9102 14.5101 17.3002 14.2601L12.7402 12.2901V14.7601C12.7402 14.8001 12.7802 14.9001 12.8102 14.9301L15.0902 17.2201C15.5302 17.6601 15.7102 18.4301 15.5102 19.0201L15.0702 20.3401C14.9002 20.8301 14.5402 21.2201 14.0602 21.4101C13.5902 21.6001 13.0702 21.5801 12.6202 21.3601C12.5702 21.3301 12.5202 21.3001 12.4702 21.2601L10.1402 19.3001C10.0602 19.2301 9.9002 19.2401 9.8302 19.3001L7.50023 21.2601C7.46023 21.3001 7.41023 21.3301 7.36023 21.3501C7.12023 21.4901 6.85023 21.5501 6.58023 21.5501ZM7.56024 10.6401C7.79024 10.6401 8.0102 10.7001 8.2002 10.8301C8.5502 11.0601 8.7502 11.4501 8.7502 11.9101V14.7601C8.7502 15.1901 8.5402 15.7001 8.2402 16.0001L5.97023 18.2801C5.93023 18.3301 5.89023 18.4801 5.91023 18.5401L6.35023 19.8701C6.38024 19.9701 6.45023 20.0101 6.49023 20.0301C6.52023 20.0401 6.57023 20.0601 6.63023 20.0401L8.8702 18.1501C9.50021 17.6101 10.4902 17.6101 11.1202 18.1501L13.3502 20.0301C13.4202 20.0401 13.4702 20.0301 13.5002 20.0201C13.5402 20.0001 13.6202 19.9601 13.6502 19.8601L14.0902 18.5401C14.1102 18.4701 14.0702 18.3201 14.0302 18.2801L11.7602 16.0001C11.4602 15.7201 11.2402 15.2001 11.2402 14.7601V11.9101C11.2402 11.4601 11.4302 11.0701 11.7702 10.8401C12.1102 10.6101 12.5502 10.5801 12.9702 10.7601L17.8902 12.8801C18.0402 12.9401 18.1402 12.9401 18.1702 12.9201C18.2002 12.9001 18.2402 12.8101 18.2402 12.6501V11.3601C18.2402 10.9801 17.9202 10.4901 17.5802 10.3501L12.0002 7.94007C11.5602 7.75007 11.2502 7.27007 11.2502 6.79007V3.79007C11.2502 3.13007 10.7302 2.28007 10.1302 1.98007C10.0502 1.94007 9.9502 1.94007 9.8602 1.98007C9.2802 2.28007 8.7502 3.15007 8.7502 3.80007V6.80007C8.7502 7.27007 8.4402 7.76007 8.0002 7.95007L2.42023 10.3601C2.07023 10.5001 1.75023 10.9901 1.75023 11.3601V12.6501C1.75023 12.8101 1.79023 12.9001 1.82023 12.9201C1.85023 12.9401 1.95023 12.9401 2.10023 12.8801L7.01023 10.7601C7.19023 10.6801 7.38024 10.6401 7.56024 10.6401Z"/></svg>