<svg xmlns="http://www.w3.org/2000/svg" width="39" height="43" fill="none" viewBox="0 0 39 43"><path fill="#000" d="M27.4081 1.1574C27.7416 0.490212 28.5188 0.191434 29.2035 0.439797L29.3595 0.50691L38.0868 4.87055C38.5248 5.08956 38.8195 5.51184 38.8795 5.98992L38.8909 6.17152V36.3736C38.8909 36.8633 38.6449 37.3157 38.2442 37.5832L38.0868 37.6747L29.3595 42.0383C29.1575 42.1392 28.9348 42.1918 28.7091 42.1918C27.963 42.1918 27.3483 41.6303 27.2643 40.9068L27.2545 40.7372L27.2538 38.7269L11.2545 38.7272C10.5086 38.7272 9.89377 38.1656 9.80974 37.4422L9.79995 37.2726L9.79982 29.3528C9.02671 29.475 8.21132 29.2851 7.55673 28.7763L7.34478 28.5948L0.423279 21.9723L4.55717 18.0168L9.23123 22.4886L9.79928 21.8832L9.79995 5.27257C9.79995 4.52662 10.3615 3.91183 11.0849 3.82781L11.2545 3.81802L27.2538 3.81776L27.2545 1.80788C27.2545 1.63853 27.284 1.47092 27.3415 1.3125L27.4081 1.1574Z"/><path fill="#DBE3E8" d="M27.2543 5.27271V37.2727H11.2543V28.6022L11.3837 28.4727L22.0048 17.1811L17.6645 13.4443L11.2543 20.256V5.27271H27.2543Z"/><path fill="#75A8F9" d="M28.7088 1.80762L37.4361 6.17125V36.3735L28.7088 40.7371V1.80762Z"/><path fill="#fff" d="M31.6179 22.7272C32.4212 22.7272 33.0724 22.076 33.0724 21.2727C33.0724 20.4693 32.4212 19.8181 31.6179 19.8181C30.8145 19.8181 30.1633 20.4693 30.1633 21.2727C30.1633 22.076 30.8145 22.7272 31.6179 22.7272Z"/><path fill="#71C865" d="M17.8477 15.4546L19.9815 17.2921L10.4017 27.4768C9.89364 28.0171 9.07021 28.0827 8.48629 27.6566L8.33662 27.5312L2.52698 21.9724L4.55698 20.0302L9.28625 24.5545L17.8477 15.4546Z"/></svg>