<svg xmlns="http://www.w3.org/2000/svg" width="22" height="22" fill="none" viewBox="0 0 22 22"><path fill="#fff" d="M11 21.75C5.07 21.75 0.25 16.93 0.25 11C0.25 5.07 5.07 0.25 11 0.25C16.93 0.25 21.75 5.07 21.75 11C21.75 16.93 16.93 21.75 11 21.75ZM11 1.75C5.9 1.75 1.75 5.9 1.75 11C1.75 16.1 5.9 20.25 11 20.25C16.1 20.25 20.25 16.1 20.25 11C20.25 5.9 16.1 1.75 11 1.75Z"/><path fill="#fff" d="M7.99999 20.75H6.99999C6.58999 20.75 6.24999 20.41 6.24999 20C6.24999 19.59 6.56999 19.26 6.97999 19.25C5.40999 13.89 5.40999 8.11 6.97999 2.75C6.56999 2.74 6.24999 2.41 6.24999 2C6.24999 1.59 6.58999 1.25 6.99999 1.25H7.99999C8.23999 1.25 8.46999 1.37 8.60999 1.56C8.74999 1.76 8.78999 2.01 8.70999 2.24C6.82999 7.89 6.82999 14.11 8.70999 19.77C8.78999 20 8.74999 20.25 8.60999 20.45C8.46999 20.63 8.23999 20.75 7.99999 20.75Z"/><path fill="#fff" d="M14 20.7502C13.92 20.7502 13.84 20.7402 13.76 20.7102C13.37 20.5802 13.15 20.1502 13.29 19.7602C15.17 14.1102 15.17 7.89018 13.29 2.23018C13.16 1.84018 13.37 1.41018 13.76 1.28018C14.16 1.15018 14.58 1.36018 14.71 1.75018C16.7 7.71018 16.7 14.2702 14.71 20.2202C14.61 20.5502 14.31 20.7502 14 20.7502Z"/><path fill="#fff" d="M11 16.2C8.21 16.2 5.43 15.81 2.75 15.02C2.74 15.42 2.41 15.75 2 15.75C1.59 15.75 1.25 15.41 1.25 15V14C1.25 13.76 1.37 13.53 1.56 13.39C1.76 13.25 2.01 13.21 2.24 13.29C7.89 15.17 14.12 15.17 19.77 13.29C20 13.21 20.25 13.25 20.45 13.39C20.65 13.53 20.76 13.76 20.76 14V15C20.76 15.41 20.42 15.75 20.01 15.75C19.6 15.75 19.27 15.43 19.26 15.02C16.57 15.81 13.79 16.2 11 16.2Z"/><path fill="#fff" d="M20 8.74986C19.92 8.74986 19.84 8.73986 19.76 8.70986C14.11 6.82986 7.88003 6.82986 2.23003 8.70986C1.83003 8.83986 1.41003 8.62986 1.28003 8.23986C1.16003 7.83986 1.37003 7.41986 1.76003 7.28986C7.72003 5.29986 14.28 5.29986 20.23 7.28986C20.62 7.41986 20.84 7.84986 20.7 8.23986C20.61 8.54986 20.31 8.74986 20 8.74986Z"/></svg>