<svg xmlns="http://www.w3.org/2000/svg" width="22" height="22" fill="none" viewBox="0 0 22 22"><path fill="#222" d="M8.15963 10.62C8.12963 10.62 8.10963 10.62 8.07963 10.62C8.02963 10.61 7.95963 10.61 7.89963 10.62C4.99963 10.53 2.80963 8.25 2.80963 5.44C2.80963 2.58 5.13963 0.25 7.99963 0.25C10.8596 0.25 13.1896 2.58 13.1896 5.44C13.1796 8.25 10.9796 10.53 8.18963 10.62C8.17963 10.62 8.16963 10.62 8.15963 10.62ZM7.99963 1.75C5.96963 1.75 4.30963 3.41 4.30963 5.44C4.30963 7.44 5.86963 9.05 7.85963 9.12C7.91963 9.11 8.04963 9.11 8.17963 9.12C10.1396 9.03 11.6796 7.42 11.6896 5.44C11.6896 3.41 10.0296 1.75 7.99963 1.75Z"/><path fill="#222" d="M15.5396 10.75C15.5096 10.75 15.4796 10.75 15.4496 10.74C15.0396 10.78 14.6196 10.49 14.5796 10.08C14.5396 9.67 14.7896 9.3 15.1996 9.25C15.3196 9.24 15.4496 9.24 15.5596 9.24C17.0196 9.16 18.1596 7.96 18.1596 6.49C18.1596 4.97 16.9296 3.74 15.4096 3.74C14.9996 3.75 14.6596 3.41 14.6596 3C14.6596 2.59 14.9996 2.25 15.4096 2.25C17.7496 2.25 19.6596 4.16 19.6596 6.5C19.6596 8.8 17.8596 10.66 15.5696 10.75C15.5596 10.75 15.5496 10.75 15.5396 10.75Z"/><path fill="#222" d="M8.16961 21.55C6.20961 21.55 4.23961 21.05 2.74961 20.05C1.35961 19.13 0.599609 17.87 0.599609 16.5C0.599609 15.13 1.35961 13.86 2.74961 12.93C5.74961 10.94 10.6096 10.94 13.5896 12.93C14.9696 13.85 15.7396 15.11 15.7396 16.48C15.7396 17.85 14.9796 19.12 13.5896 20.05C12.0896 21.05 10.1296 21.55 8.16961 21.55ZM3.57961 14.19C2.61961 14.83 2.09961 15.65 2.09961 16.51C2.09961 17.36 2.62961 18.18 3.57961 18.81C6.06961 20.48 10.2696 20.48 12.7596 18.81C13.7196 18.17 14.2396 17.35 14.2396 16.49C14.2396 15.64 13.7096 14.82 12.7596 14.19C10.2696 12.53 6.06961 12.53 3.57961 14.19Z"/><path fill="#222" d="M17.3396 19.75C16.9896 19.75 16.6796 19.51 16.6096 19.15C16.5296 18.74 16.7896 18.35 17.1896 18.26C17.8196 18.13 18.3996 17.88 18.8496 17.53C19.4196 17.1 19.7296 16.56 19.7296 15.99C19.7296 15.42 19.4196 14.88 18.8596 14.46C18.4196 14.12 17.8696 13.88 17.2196 13.73C16.8196 13.64 16.5596 13.24 16.6496 12.83C16.7396 12.43 17.1396 12.17 17.5496 12.26C18.4096 12.45 19.1596 12.79 19.7696 13.26C20.6996 13.96 21.2296 14.95 21.2296 15.99C21.2296 17.03 20.6896 18.02 19.7596 18.73C19.1396 19.21 18.3596 19.56 17.4996 19.73C17.4396 19.75 17.3896 19.75 17.3396 19.75Z"/></svg>