<svg width="22" height="22" viewBox="0 0 22 22" fill="none" xmlns="http://www.w3.org/2000/svg">
<path d="M19.3799 20.13C19.1799 20.13 18.9899 20.05 18.8499 19.91L12.4699 13.53C12.1799 13.24 12.1799 12.76 12.4699 12.47L20.2 4.74001C20.39 4.55001 20.6799 4.48001 20.9399 4.55001C21.1999 4.63001 21.3999 4.84001 21.4599 5.10001C21.6499 5.95001 21.7499 6.90001 21.7499 8.00001V14C21.7499 16.77 21.1699 18.64 19.9099 19.91C19.7699 20.05 19.5599 20.08 19.3799 20.13ZM14.0599 13L19.3199 18.26C19.9499 17.29 20.2499 15.91 20.2499 14V8.00001C20.2499 7.59001 20.2399 7.21001 20.2099 6.85001L14.0599 13Z" fill="#292D32"/>
<path d="M5.26999 21.48C5.20999 21.48 5.16001 21.47 5.10001 21.46C1.79001 20.7 0.25 18.33 0.25 14V8C0.25 2.57 2.57 0.25 8 0.25H14C18.33 0.25 20.7 1.79001 21.46 5.10001C21.52 5.35001 21.44 5.62 21.26 5.8L5.79999 21.26C5.65999 21.4 5.46999 21.48 5.26999 21.48ZM8 1.75C3.39 1.75 1.75 3.39 1.75 8V14C1.75 17.47 2.71001 19.21 5.04001 19.9L19.89 5.05C19.21 2.72 17.46 1.75999 13.99 1.75999H8V1.75Z" fill="#292D32"/>
<path d="M13.9999 21.7499H7.99989C6.89989 21.7499 5.95989 21.6599 5.09989 21.4599C4.82989 21.3999 4.61987 21.1999 4.54987 20.9399C4.46987 20.6799 4.54988 20.3999 4.73988 20.1999L12.4699 12.4699C12.7599 12.1799 13.2399 12.1799 13.5299 12.4699L19.9099 18.8499C20.0499 18.9899 20.1299 19.1799 20.1299 19.3799C20.1299 19.5799 20.0499 19.7699 19.9099 19.9099C18.6399 21.1699 16.7699 21.7499 13.9999 21.7499ZM6.84989 20.2099C7.20989 20.2399 7.58989 20.2499 7.99989 20.2499H13.9999C15.9199 20.2499 17.2899 19.9499 18.2599 19.3199L12.9999 14.0599L6.84989 20.2099Z" fill="#292D32"/>
<path d="M8.11994 12.31C7.48994 12.31 6.85993 12.08 6.35993 11.61C4.76993 10.1 4.12996 8.44005 4.50996 6.82005C4.88996 5.16005 6.33994 4.04004 8.11994 4.04004C9.8999 4.04004 11.35 5.16005 11.73 6.82005C12.1 8.45005 11.4599 10.1 9.8699 11.61C9.3799 12.07 8.74994 12.31 8.11994 12.31ZM5.96995 7.15004C5.64995 8.51004 6.56994 9.7301 7.39994 10.5201C7.80994 10.91 8.43994 10.91 8.83994 10.5201C9.6599 9.7401 10.5799 8.52004 10.2699 7.15004C9.9999 5.96004 8.93994 5.53004 8.11994 5.53004C7.29994 5.53004 6.24995 5.96004 5.96995 7.15004Z" fill="#292D32"/>
<path d="M8.1499 8.48999C7.5999 8.48999 7.1499 8.03999 7.1499 7.48999C7.1499 6.93999 7.5899 6.48999 8.1499 6.48999H8.15991C8.70991 6.48999 9.1599 6.93999 9.1599 7.48999C9.1599 8.03999 8.6999 8.48999 8.1499 8.48999Z" fill="#292D32"/>
</svg>
