<svg xmlns="http://www.w3.org/2000/svg" width="41" height="42" fill="none" viewBox="0 0 41 42"><path fill="#DBE3E8" fill-rule="evenodd" d="M10.9815 27.8181H5.16332L0.799683 37.2727V40.909H40.0724V37.2727L35.7088 27.8181H29.1633" clip-rule="evenodd"/><path fill="#fff" d="M39.3452 37.2727H1.52698V40.1818H39.3452V37.2727Z"/><path fill="#000" d="M10.9815 27.0908C11.3831 27.0908 11.7088 27.4165 11.7088 27.8181C11.7088 28.1752 11.4515 28.4721 11.1123 28.5336L10.9815 28.5454H5.62736L1.52699 37.4283V40.1817H39.3452V37.4312L35.2434 28.5454H29.1634C28.8063 28.5454 28.5094 28.2881 28.4479 27.9489L28.4361 27.8181C28.4361 27.461 28.6934 27.1641 29.0326 27.1026L29.1634 27.0908H35.7088C35.952 27.0908 36.1762 27.212 36.31 27.4088L36.3692 27.5134L40.7328 36.9679L40.7997 37.2726V40.909C40.7997 41.2661 40.5424 41.563 40.2032 41.6245L40.0724 41.6363H0.799721C0.442689 41.6363 0.145758 41.379 0.0841723 41.0398L0.0724487 40.909V37.2726L0.139387 36.9679L4.50304 27.5134C4.60493 27.2926 4.80887 27.1398 5.04371 27.1007L5.16336 27.0908H10.9815Z"/><path fill="#000" d="M20.4368 0.90918C26.8628 0.90918 32.0724 6.16486 32.0724 12.6478C32.0724 14.8042 31.4966 16.8253 30.4912 18.5604L22.0582 31.4087C21.4704 32.3041 20.268 32.5535 19.3726 31.9658C19.1507 31.8202 18.9611 31.6305 18.8154 31.4087L10.3825 18.5604C9.37702 16.8253 8.79968 14.8042 8.79968 12.6478C8.79968 6.16486 14.0093 0.90918 20.4368 0.90918Z"/><path fill="#F85B5B" d="M20.4368 2.36377C26.0567 2.36377 30.6179 6.96538 30.6179 12.6478C30.6179 14.3441 30.2124 15.9772 29.4495 17.4374L29.2326 17.8313L20.8422 30.6106L20.7705 30.6964C20.6109 30.848 20.3626 30.8758 20.1708 30.7498L20.094 30.6874L20.0316 30.6106L11.5986 17.7623L11.3913 17.384C10.6605 15.9758 10.2543 14.3427 10.2543 12.6478C10.2543 6.96517 14.8157 2.36377 20.4368 2.36377ZM20.4361 8.18195C18.0262 8.18195 16.0725 10.1356 16.0725 12.5456C16.0725 14.9556 18.0262 16.9092 20.4361 16.9092C22.8461 16.9092 24.7997 14.9556 24.7997 12.5456C24.7997 10.1356 22.8461 8.18195 20.4361 8.18195Z"/><path fill="#fff" d="M20.4361 9.63623C18.8294 9.63623 17.527 10.9387 17.527 12.5453C17.527 14.152 18.8294 15.4544 20.4361 15.4544C22.0428 15.4544 23.3452 14.152 23.3452 12.5453C23.3452 10.9387 22.0428 9.63623 20.4361 9.63623Z"/></svg>