<svg xmlns="http://www.w3.org/2000/svg" width="22" height="22" fill="none" viewBox="0 0 22 22"><path fill="#CECFD1" d="M15.2799 21.1H11.4799C10.9199 21.1 9.6999 20.93 9.0499 20.28L6.01986 17.94L6.93986 16.75L10.0399 19.15C10.2899 19.39 10.9199 19.59 11.4799 19.59H15.2799C16.1799 19.59 17.1499 18.87 17.3499 18.06L19.7699 10.71C19.9299 10.27 19.8999 9.87 19.6899 9.58C19.4699 9.27 19.0699 9.09 18.5799 9.09H14.5799C14.0599 9.09 13.5799 8.86999 13.2499 8.48999C12.9099 8.09999 12.7599 7.57999 12.8399 7.03999L13.3399 3.82999C13.4599 3.26999 13.0799 2.63999 12.5399 2.45999C12.0499 2.27999 11.4199 2.53999 11.1999 2.85999L7.09986 8.95999L5.85986 8.12999L9.9599 2.02999C10.5899 1.08999 11.9699 0.63999 13.0499 1.04999C14.2999 1.45999 15.0999 2.83999 14.8199 4.11999L14.3299 7.26999C14.3199 7.33999 14.3199 7.43999 14.3899 7.51999C14.4399 7.56999 14.5099 7.59999 14.5899 7.59999H18.5899C19.5699 7.59999 20.4199 8.00999 20.9199 8.71999C21.4099 9.41 21.5099 10.32 21.1899 11.2L18.7999 18.48C18.4299 19.93 16.8899 21.1 15.2799 21.1Z"/><path fill="#CECFD1" d="M4.37988 19.9999H3.37988C1.52988 19.9999 0.629883 19.1299 0.629883 17.3499V7.5499C0.629883 5.7699 1.52988 4.8999 3.37988 4.8999H4.37988C6.22988 4.8999 7.12988 5.7699 7.12988 7.5499V17.3499C7.12988 19.1299 6.22988 19.9999 4.37988 19.9999ZM3.37988 6.3999C2.28988 6.3999 2.12988 6.6599 2.12988 7.5499V17.3499C2.12988 18.2399 2.28988 18.4999 3.37988 18.4999H4.37988C5.46988 18.4999 5.62988 18.2399 5.62988 17.3499V7.5499C5.62988 6.6599 5.46988 6.3999 4.37988 6.3999H3.37988Z"/></svg>