<svg xmlns="http://www.w3.org/2000/svg" width="14" height="16" fill="none" viewBox="0 0 14 16"><path fill="#185AAA" d="M6.99998 9.44652C5.57998 9.44652 4.41998 8.29319 4.41998 6.86652C4.41998 5.43988 5.57998 4.29321 6.99998 4.29321C8.41998 4.29321 9.57998 5.44655 9.57998 6.87319C9.57998 8.29985 8.41998 9.44652 6.99998 9.44652ZM6.99998 5.29321C6.13332 5.29321 5.41998 5.99988 5.41998 6.87319C5.41998 7.74652 6.12665 8.45319 6.99998 8.45319C7.87332 8.45319 8.57998 7.74652 8.57998 6.87319C8.57998 5.99988 7.86665 5.29321 6.99998 5.29321Z"/><path fill="#185AAA" d="M7.00009 15.1733C6.01342 15.1733 5.02006 14.7999 4.24672 14.0599C2.28006 12.1666 0.106723 9.14659 0.926723 5.55325C1.66672 2.29325 4.51339 0.833252 7.00009 0.833252C7.00009 0.833252 7.00009 0.833252 7.00676 0.833252C9.49342 0.833252 12.3401 2.29325 13.0801 5.55992C13.8934 9.15325 11.7201 12.1666 9.75342 14.0599C8.98009 14.7999 7.98676 15.1733 7.00009 15.1733ZM7.00009 1.83325C5.06006 1.83325 2.56672 2.86659 1.90672 5.77325C1.18672 8.91325 3.16006 11.6199 4.94672 13.3333C6.10009 14.4466 7.90676 14.4466 9.06009 13.3333C10.8401 11.6199 12.8134 8.91325 12.1068 5.77325C11.4401 2.86659 8.94009 1.83325 7.00009 1.83325Z"/></svg>