<svg width="20" height="22" viewBox="0 0 20 22" fill="none" xmlns="http://www.w3.org/2000/svg">
<path d="M12.5038 21.5042H6.50372C1.88372 21.5042 1.02372 19.3542 0.803725 17.2642L0.0537245 11.2742C-0.0562755 10.1942 -0.0962756 8.64415 0.953724 7.48415C1.85372 6.48415 3.34372 6.00415 5.50372 6.00415H13.5038C15.6738 6.00415 17.1638 6.49415 18.0538 7.48415C19.0938 8.64415 19.0638 10.1942 18.9538 11.2542L18.2038 17.2642C17.9838 19.3542 17.1238 21.5042 12.5038 21.5042ZM5.50372 7.50415C3.81372 7.50415 2.65372 7.83415 2.06372 8.49415C1.57372 9.03415 1.41372 9.86415 1.54372 11.1042L2.29372 17.0942C2.46372 18.6942 2.90372 20.0142 6.50372 20.0142H12.5038C16.1038 20.0142 16.5438 18.7042 16.7138 17.1142L17.4638 11.1042C17.5938 9.88415 17.4338 9.05415 16.9438 8.50415C16.3538 7.83415 15.1938 7.50415 13.5038 7.50415H5.50372Z" fill="#292D32"/>
<path d="M14.0037 7.3842C13.5937 7.3842 13.2537 7.04421 13.2537 6.63421V5.25421C13.2537 4.20422 12.8037 3.18421 12.0237 2.47421C11.2337 1.75421 10.2037 1.42421 9.13366 1.52421C7.33366 1.69421 5.75366 3.53421 5.75366 5.45421V6.42421C5.75366 6.83421 5.41366 7.1742 5.00366 7.1742C4.59366 7.1742 4.25366 6.83421 4.25366 6.42421V5.44421C4.25366 2.75421 6.42366 0.274205 8.99366 0.0242052C10.4937 -0.115795 11.9337 0.354205 13.0337 1.36421C14.1237 2.35421 14.7537 3.77421 14.7537 5.25421V6.63421C14.7537 7.04421 14.4137 7.3842 14.0037 7.3842Z" fill="#292D32"/>
<path d="M9.00366 16.5042L9.00366 14.5042C9.00366 14.0942 9.34366 13.7542 9.75366 13.7542C10.1637 13.7542 10.5037 14.0942 10.5037 14.5042L10.5037 16.5042C10.5037 16.9142 10.1637 17.2542 9.75366 17.2542C9.34366 17.2542 9.00366 16.9142 9.00366 16.5042Z" fill="#292D32"/>
<path d="M9.80371 14.6142C8.53371 14.6142 7.50366 13.5842 7.50366 12.3142C7.50366 11.0442 8.53371 10.0142 9.80371 10.0142C11.0737 10.0142 12.1037 11.0442 12.1037 12.3142C12.1037 13.5842 11.0737 14.6142 9.80371 14.6142ZM9.80371 11.5042C9.36371 11.5042 9.00371 11.8642 9.00371 12.3042C9.00371 12.7442 9.36371 13.1042 9.80371 13.1042C10.2437 13.1042 10.6037 12.7442 10.6037 12.3042C10.6037 11.8642 10.2437 11.5042 9.80371 11.5042Z" fill="#292D32"/>
</svg>
