<svg width="22" height="20" viewBox="0 0 22 20" fill="none" xmlns="http://www.w3.org/2000/svg">
<path d="M16 19.25H6C2.35 19.25 0.25 17.15 0.25 13.5V6.5C0.25 2.85 2.35 0.75 6 0.75H16C19.65 0.75 21.75 2.85 21.75 6.5V13.5C21.75 17.15 19.65 19.25 16 19.25ZM6 2.25C3.14 2.25 1.75 3.64 1.75 6.5V13.5C1.75 16.36 3.14 17.75 6 17.75H16C18.86 17.75 20.25 16.36 20.25 13.5V6.5C20.25 3.64 18.86 2.25 16 2.25H6Z" fill="#292D32"/>
<path d="M10.9998 10.87C10.1598 10.87 9.3098 10.61 8.65978 10.08L5.52978 7.57997C5.20978 7.31997 5.14978 6.84997 5.40978 6.52997C5.66978 6.20997 6.13978 6.14997 6.45978 6.40997L9.5898 8.91C10.3498 9.52 11.6398 9.52 12.3998 8.91L15.5298 6.40997C15.8498 6.14997 16.3298 6.19997 16.5798 6.52997C16.8398 6.84997 16.7898 7.32997 16.4598 7.57997L13.3298 10.08C12.6898 10.61 11.8398 10.87 10.9998 10.87Z" fill="#292D32"/>
</svg>
