<svg width="20" height="12" viewBox="0 0 20 12" fill="none" xmlns="http://www.w3.org/2000/svg">
<path d="M19 1.75H1C0.59 1.75 0.25 1.41 0.25 1C0.25 0.59 0.59 0.25 1 0.25H19C19.41 0.25 19.75 0.59 19.75 1C19.75 1.41 19.41 1.75 19 1.75Z" fill="#222222"/>
<path d="M19 6.75H1C0.59 6.75 0.25 6.41 0.25 6C0.25 5.59 0.59 5.25 1 5.25H19C19.41 5.25 19.75 5.59 19.75 6C19.75 6.41 19.41 6.75 19 6.75Z" fill="#222222"/>
<path d="M19 11.75H1C0.59 11.75 0.25 11.41 0.25 11C0.25 10.59 0.59 10.25 1 10.25H19C19.41 10.25 19.75 10.59 19.75 11C19.75 11.41 19.41 11.75 19 11.75Z" fill="#222222"/>
</svg>
