<svg xmlns="http://www.w3.org/2000/svg" width="22" height="22" fill="none" viewBox="0 0 22 22"><path fill="#292D32" d="M19.62 12.0701C19.24 12.0701 18.92 11.7801 18.87 11.4001C18.63 9.14009 17.41 7.0901 15.53 5.7901C15.19 5.5501 15.11 5.0901 15.34 4.7501C15.58 4.4101 16.05 4.3301 16.38 4.5601C18.62 6.1101 20.06 8.5501 20.35 11.2401C20.39 11.6501 20.1 12.0201 19.68 12.0701C19.67 12.0701 19.64 12.0701 19.62 12.0701Z"/><path fill="#292D32" d="M2.49 12.12C2.46 12.12 2.44 12.12 2.41 12.12C2 12.07 1.7 11.7 1.74 11.29C2.01 8.60001 3.44 6.17001 5.65 4.60001C5.99 4.36001 6.46 4.44001 6.7 4.78001C6.94 5.12001 6.86 5.59001 6.52 5.83001C4.66 7.14001 3.46 9.19 3.23 11.45C3.2 11.83 2.87 12.12 2.49 12.12Z"/><path fill="#292D32" d="M11.06 21.61C9.58 21.61 8.17 21.27 6.85 20.61C6.48 20.42 6.33 19.97 6.52 19.6C6.71 19.23 7.16 19.08 7.53 19.27C9.69 20.36 12.29 20.38 14.47 19.33C14.84 19.15 15.29 19.31 15.47 19.68C15.65 20.05 15.49 20.5 15.12 20.68C13.84 21.3 12.48 21.61 11.06 21.61Z"/><path fill="#292D32" d="M11.06 7.43988C9.11 7.43988 7.53 5.85988 7.53 3.90988C7.53 1.95988 9.11 0.379883 11.06 0.379883C13.01 0.379883 14.59 1.95988 14.59 3.90988C14.59 5.85988 13 7.43988 11.06 7.43988ZM11.06 1.88988C9.94 1.88988 9.03 2.79988 9.03 3.91988C9.03 5.03988 9.94 5.94988 11.06 5.94988C12.18 5.94988 13.09 5.03988 13.09 3.91988C13.09 2.79988 12.17 1.88988 11.06 1.88988Z"/><path fill="#292D32" d="M3.82999 19.6699C1.87999 19.6699 0.299988 18.0899 0.299988 16.1399C0.299988 14.1999 1.87999 12.6099 3.82999 12.6099C5.77999 12.6099 7.35999 14.1899 7.35999 16.1399C7.35999 18.0799 5.77999 19.6699 3.82999 19.6699ZM3.82999 14.1099C2.70999 14.1099 1.79999 15.0199 1.79999 16.1399C1.79999 17.2599 2.70999 18.1699 3.82999 18.1699C4.94999 18.1699 5.85999 17.2599 5.85999 16.1399C5.85999 15.0199 4.94999 14.1099 3.82999 14.1099Z"/><path fill="#292D32" d="M18.17 19.6699C16.22 19.6699 14.64 18.0899 14.64 16.1399C14.64 14.1999 16.22 12.6099 18.17 12.6099C20.12 12.6099 21.7 14.1899 21.7 16.1399C21.69 18.0799 20.11 19.6699 18.17 19.6699ZM18.17 14.1099C17.05 14.1099 16.14 15.0199 16.14 16.1399C16.14 17.2599 17.05 18.1699 18.17 18.1699C19.29 18.1699 20.2 17.2599 20.2 16.1399C20.19 15.0199 19.29 14.1099 18.17 14.1099Z"/></svg>