<svg width="20" height="12" viewBox="0 0 20 12" fill="none" xmlns="http://www.w3.org/2000/svg">
<path d="M19 1.75H1C0.59 1.75 0.25 1.41 0.25 1C0.25 0.59 0.59 0.25 1 0.25H19C19.41 0.25 19.75 0.59 19.75 1C19.75 1.41 19.41 1.75 19 1.75Z" fill="#292D32"/>
<path d="M16 6.75H4C3.59 6.75 3.25 6.41 3.25 6C3.25 5.59 3.59 5.25 4 5.25H16C16.41 5.25 16.75 5.59 16.75 6C16.75 6.41 16.41 6.75 16 6.75Z" fill="#292D32"/>
<path d="M12 11.75H8C7.59 11.75 7.25 11.41 7.25 11C7.25 10.59 7.59 10.25 8 10.25H12C12.41 10.25 12.75 10.59 12.75 11C12.75 11.41 12.41 11.75 12 11.75Z" fill="#292D32"/>
</svg>
