<svg xmlns="http://www.w3.org/2000/svg" width="22" height="22" fill="none" viewBox="0 0 22 22"><path fill="#F4AB3E" d="M10.1359 1.48359C10.5216 0.821321 11.4784 0.821321 11.8641 1.48359L14.6576 6.2797C14.7989 6.5223 15.0357 6.69433 15.3101 6.75375L20.7347 7.92843C21.4837 8.09064 21.7794 9.00056 21.2687 9.57207L17.5706 13.7109C17.3835 13.9203 17.2931 14.1986 17.3214 14.4779L17.8805 20C17.9577 20.7626 17.1836 21.3249 16.4823 21.0159L11.4032 18.7777C11.1463 18.6645 10.8537 18.6645 10.5968 18.7777L5.51769 21.0159C4.81635 21.3249 4.04232 20.7626 4.11953 20L4.67864 14.4779C4.70692 14.1986 4.61648 13.9203 4.42941 13.7109L0.731273 9.57207C0.220618 9.00056 0.516271 8.09064 1.26532 7.92843L6.68993 6.75375C6.96433 6.69433 7.2011 6.5223 7.3424 6.2797L10.1359 1.48359Z"/></svg>