<svg width="24" height="24" viewBox="0 0 24 24" fill="none" xmlns="http://www.w3.org/2000/svg">
<path d="M0 12C0 5.37258 5.37258 0 12 0V0C18.6274 0 24 5.37258 24 12V12C24 18.6274 18.6274 24 12 24V24C5.37258 24 0 18.6274 0 12V12Z" fill="#04AA6D"/>
<path d="M10.1645 16.4146C9.99788 16.4146 9.83954 16.3479 9.72288 16.2312L5.51454 11.8146C5.27287 11.5729 5.27287 11.1729 5.51454 10.9312C5.7562 10.6896 6.1562 10.6896 6.39787 10.9312L10.1645 14.9063L17.5979 7.18125C17.8395 6.93958 18.2395 6.93958 18.4812 7.18125C18.7229 7.42292 18.7229 7.82292 18.4812 8.06458L10.6062 16.2312C10.4895 16.3479 10.3312 16.4146 10.1645 16.4146Z" fill="white"/>
</svg>
