<svg width="35" height="43" viewBox="0 0 35 43" fill="none" xmlns="http://www.w3.org/2000/svg">
<path fill-rule="evenodd" clip-rule="evenodd" d="M2.16333 38.2727H8.70878V41.1818C8.70878 41.9851 8.05758 42.6363 7.25424 42.6363H3.61788C2.81456 42.6363 2.16333 41.9851 2.16333 41.1818V38.2727ZM26.1633 38.2727H32.7088V41.1818C32.7088 41.9851 32.0576 42.6363 31.2542 42.6363H27.6179C26.8145 42.6363 26.1633 41.9851 26.1633 41.1818V38.2727Z" fill="#787B81"/>
<path fill-rule="evenodd" clip-rule="evenodd" d="M6.52697 28.0908H28.3451C30.7552 28.0908 32.7088 30.0444 32.7088 32.4545V39.7272H2.16333V32.4545C2.16333 30.0444 4.117 28.0908 6.52697 28.0908Z" fill="#DDE9FD"/>
<path d="M7.81442 1.52202L7.68961 1.58026C7.26243 1.82807 7.17433 2.43427 7.55129 2.7912L14.0153 8.91055L9.54911 10.5364L6.80343 8.51872C5.77681 7.76422 4.44099 7.57289 3.24385 8.00886L1.93759 8.48457C1.44902 8.6625 1.27828 9.26676 1.6015 9.67408L6.17577 15.4383C7.19505 16.7227 8.92191 17.2108 10.4627 16.6499L31.4428 9.01351C33.0146 8.44163 33.825 6.7037 33.2524 5.13238L33.1629 4.91315C32.5155 3.48695 30.8685 2.77779 29.3717 3.32242L22.5881 5.79136L13.1791 0.88611C12.2311 0.391893 11.1191 0.318735 10.1146 0.684495L7.81442 1.52202Z" fill="#75A8F9"/>
<path d="M17.4361 18.6364C20.6655 18.6364 23.4625 18.7852 25.8295 19.0837C27.1591 19.2514 28.2809 20.1349 28.7623 21.3704L28.8499 21.6222L30.3917 26.6364H32.7088C33.5121 26.6364 34.1633 27.2876 34.1633 28.091C34.1633 28.8943 33.5121 29.5455 32.7088 29.5455L31.5978 29.5456C32.2887 30.3176 32.7088 31.3371 32.7088 32.4546L32.7073 39H32.7088V41.1819C32.7088 41.9278 32.1473 42.5426 31.4239 42.6267L31.2543 42.6364H27.6179C26.872 42.6364 26.2572 42.075 26.1731 41.3515L26.1633 41.1819V39.7273H8.7088V41.1819C8.7088 41.9278 8.14735 42.5426 7.4239 42.6267L7.25426 42.6364H3.61789C2.87196 42.6364 2.25716 42.075 2.17314 41.3515L2.16335 41.1819V39.7273V32.4546C2.16335 31.3371 2.58345 30.3176 3.27434 29.5456L2.16335 29.5455C1.36003 29.5455 0.708801 28.8943 0.708801 28.091C0.708801 27.2876 1.36003 26.6364 2.16335 26.6364H4.47898L6.02223 21.6222C6.44262 20.2559 7.62444 19.2626 9.04276 19.0837C11.4096 18.7852 14.2067 18.6364 17.4361 18.6364ZM7.25426 39.7273H3.61789V41.1819H7.25426V39.7273ZM31.2543 39.7273H27.6179V41.1819H31.2543V39.7273ZM28.3452 29.5455H6.52698C4.99337 29.5455 3.73693 30.7323 3.62588 32.2374L3.61789 32.4546L3.61644 38.2728H31.2528L31.2543 32.4546C31.2543 30.9209 30.0675 29.6645 28.5623 29.5535L28.3452 29.5455ZM8.7088 31.3637C10.1146 31.3637 11.2543 32.5033 11.2543 33.9091C11.2543 35.315 10.1146 36.4546 8.7088 36.4546C7.303 36.4546 6.16335 35.315 6.16335 33.9091C6.16335 32.5033 7.303 31.3637 8.7088 31.3637ZM26.1633 31.3637C27.5692 31.3637 28.7088 32.5033 28.7088 33.9091C28.7088 35.315 27.5692 36.4546 26.1633 36.4546C24.7575 36.4546 23.6179 35.315 23.6179 33.9091C23.6179 32.5033 24.7575 31.3637 26.1633 31.3637ZM17.4361 20.091C14.2637 20.091 11.526 20.2366 9.22473 20.5269C8.44466 20.6252 7.78386 21.1342 7.48484 21.8498L7.41245 22.0498L5.51616 28.2086C5.8406 28.1317 6.17904 28.091 6.52698 28.091H28.3452C28.6931 28.091 29.0316 28.1317 29.3559 28.2086L27.4598 22.0499C27.2074 21.2302 26.4983 20.6342 25.6474 20.5269C23.3462 20.2366 20.6084 20.091 17.4361 20.091ZM12.9167 0.761776L13.1791 0.88611L22.5881 5.79136L29.3716 3.32242C30.7937 2.80502 32.3511 3.41917 33.0583 4.70466L33.1629 4.91315L33.2524 5.13238C33.799 6.63226 33.0854 8.28399 31.6522 8.92842L31.4428 9.01351L10.4627 16.6499C9.00756 17.1797 7.38634 16.7737 6.35203 15.645L6.17574 15.4383L1.60148 9.67408C1.30519 9.30071 1.42397 8.76185 1.82215 8.53757L1.93757 8.48457L3.24384 8.00886C4.35546 7.60403 5.58668 7.74009 6.57885 8.36569L6.80342 8.51872L9.54909 10.5364L14.0153 8.91055L7.55127 2.7912C7.20858 2.46672 7.25024 1.93623 7.58167 1.65628L7.6896 1.58026L7.8144 1.52202L10.1146 0.684495C11.0278 0.351986 12.0298 0.382219 12.9167 0.761776ZM10.848 1.97917L10.6122 2.05126L9.36335 2.50404L16.7244 9.47226L9.31506 12.1695L5.94202 9.69078C5.37085 9.27101 4.64486 9.13322 3.96589 9.30633L3.74159 9.37559L3.33862 9.52223L7.31513 14.5342C7.90022 15.2715 8.8624 15.5842 9.75956 15.3475L9.96524 15.2831L30.9455 7.64663C31.7076 7.36928 32.1252 6.56426 31.9519 5.83647L31.9056 5.68192L31.8384 5.51433C31.5251 4.82404 30.7625 4.46169 30.0359 4.63874L29.8691 4.68925L22.4836 7.37725L12.5066 2.17588C11.9939 1.90857 11.4035 1.84052 10.848 1.97917Z" fill="#333333"/>
<path d="M8.70882 35.3637C9.51216 35.3637 10.1634 34.7125 10.1634 33.9091C10.1634 33.1058 9.51216 32.4546 8.70882 32.4546C7.90547 32.4546 7.25427 33.1058 7.25427 33.9091C7.25427 34.7125 7.90547 35.3637 8.70882 35.3637Z" fill="white"/>
<path d="M26.1633 35.3637C26.9667 35.3637 27.6179 34.7125 27.6179 33.9091C27.6179 33.1058 26.9667 32.4546 26.1633 32.4546C25.36 32.4546 24.7088 33.1058 24.7088 33.9091C24.7088 34.7125 25.36 35.3637 26.1633 35.3637Z" fill="white"/>
</svg>
