<svg xmlns="http://www.w3.org/2000/svg" width="20" height="22" fill="none" viewBox="0 0 20 22"><path fill="#292D32" d="M10 12.75C9.59 12.75 9.25 12.41 9.25 12V6.75C9.25 6.34 9.59 6 10 6C10.41 6 10.75 6.34 10.75 6.75V12C10.75 12.41 10.41 12.75 10 12.75Z"/><path fill="#292D32" d="M10 16.25C9.73 16.25 9.48 16.15 9.29 15.96C9.2 15.86 9.13 15.75 9.07 15.63C9.02 15.51 9 15.38 9 15.25C9 14.99 9.11 14.73 9.29 14.54C9.66 14.17 10.34 14.17 10.71 14.54C10.89 14.73 11 14.99 11 15.25C11 15.38 10.97 15.51 10.92 15.63C10.87 15.75 10.8 15.86 10.71 15.96C10.52 16.15 10.27 16.25 10 16.25Z"/><path fill="#292D32" d="M10.0002 21.7501C9.3302 21.7501 8.6502 21.5801 8.0502 21.2301L2.11017 17.8001C0.910166 17.1001 0.160156 15.8101 0.160156 14.4201V7.58011C0.160156 6.19011 0.910166 4.90011 2.11017 4.20011L8.0502 0.770117C9.2502 0.0701172 10.7402 0.0701172 11.9502 0.770117L17.8902 4.20011C19.0902 4.90011 19.8402 6.19011 19.8402 7.58011V14.4201C19.8402 15.8101 19.0902 17.1001 17.8902 17.8001L11.9502 21.2301C11.3502 21.5801 10.6702 21.7501 10.0002 21.7501ZM10.0002 1.7501C9.5902 1.7501 9.1702 1.8601 8.8002 2.0701L2.86017 5.5001C2.12017 5.9301 1.66016 6.72011 1.66016 7.58011V14.4201C1.66016 15.2701 2.12017 16.0701 2.86017 16.5001L8.8002 19.9301C9.5402 20.3601 10.4602 20.3601 11.1902 19.9301L17.1302 16.5001C17.8702 16.0701 18.3302 15.2801 18.3302 14.4201V7.58011C18.3302 6.73011 17.8702 5.9301 17.1302 5.5001L11.1902 2.0701C10.8302 1.8601 10.4102 1.7501 10.0002 1.7501Z"/></svg>