<svg xmlns="http://www.w3.org/2000/svg" width="105" height="100" fill="none" viewBox="0 0 105 100"><rect width="104.762" height="100" fill="#FAF3E7" rx="50"/><path fill="#CC8C18" d="M51.9922 40.3292C46.6672 40.3292 42.3216 44.6749 42.3216 50C42.3216 55.3251 46.6672 59.6708 51.9922 59.6708C57.3172 59.6708 61.6628 55.3251 61.6628 50C61.6628 44.6749 57.3172 40.3292 51.9922 40.3292ZM80.9968 50C80.9968 45.9953 81.033 42.0269 80.8081 38.0294C80.5832 33.3863 79.524 29.2655 76.1288 25.8702C72.7263 22.4676 68.6129 21.4157 63.9698 21.1908C59.9652 20.9659 55.9968 21.0022 51.9995 21.0022C47.9948 21.0022 44.0265 20.9659 40.0291 21.1908C35.386 21.4157 31.2653 22.4749 27.8701 25.8702C24.4676 29.2727 23.4157 33.3863 23.1908 38.0294C22.9659 42.0341 23.0022 46.0026 23.0022 50C23.0022 53.9975 22.9659 57.9731 23.1908 61.9706C23.4157 66.6137 24.4749 70.7345 27.8701 74.1298C31.2726 77.5324 35.386 78.5843 40.0291 78.8092C44.0337 79.0341 48.0021 78.9978 51.9995 78.9978C56.0041 78.9978 59.9724 79.0341 63.9698 78.8092C68.6129 78.5843 72.7336 77.5251 76.1288 74.1298C79.5313 70.7273 80.5832 66.6137 80.8081 61.9706C81.0403 57.9731 80.9968 54.0047 80.9968 50ZM51.9922 64.8798C43.758 64.8798 37.1127 58.2343 37.1127 50C37.1127 41.7657 43.758 35.1202 51.9922 35.1202C60.2264 35.1202 66.8717 41.7657 66.8717 50C66.8717 58.2343 60.2264 64.8798 51.9922 64.8798ZM67.4811 37.9859C65.5586 37.9859 64.0061 36.4333 64.0061 34.5108C64.0061 32.5882 65.5586 31.0357 67.4811 31.0357C69.4036 31.0357 70.9562 32.5882 70.9562 34.5108C70.9567 34.9673 70.8672 35.4194 70.6928 35.8413C70.5184 36.2632 70.2624 36.6465 69.9396 36.9693C69.6168 37.2921 69.2335 37.5481 68.8116 37.7225C68.3898 37.897 67.9376 37.9865 67.4811 37.9859Z"/></svg>