<svg width="100" height="100" viewBox="0 0 100 100" fill="none" xmlns="http://www.w3.org/2000/svg">
<rect width="100" height="100" rx="50" fill="white" />
<path d="M19 26.3125C19 24.4831 20.4831 23 22.3125 23H29.4439C31.0632 23 32.4451 24.1707 32.7113 25.7679L35.1603 40.4618C35.3994 41.8962 34.6749 43.3188 33.3743 43.9691L28.246 46.5332C31.9438 55.7219 39.2781 63.0562 48.4668 66.754L51.0309 61.6257C51.6812 60.3251 53.1038 59.6006 54.5382 59.8397L69.2321 62.2887C70.8293 62.5549 72 63.9368 72 65.5561V72.6875C72 74.5169 70.5169 76 68.6875 76H62.0625C38.2797 76 19 56.7203 19 32.9375V26.3125Z" fill="#CC8C18"/>
<path d="M48 21C50.1959 21.0232 52.5397 21.2036 54.6991 21.6119C55.4844 21.7604 56.7603 22.4348 56.8366 23.3349C57.0527 25.8843 56.9922 28.4391 56.9922 31" stroke="#CC8C18" stroke-width="3" stroke-linecap="round"/>
<path d="M52 14C55.6599 14.0395 59.5661 14.3462 63.1652 15.0403C64.474 15.2926 66.6005 16.4391 66.7277 17.9694C67.0878 22.3032 66.987 26.6465 66.987 31" stroke="#CC8C18" stroke-width="3" stroke-linecap="round"/>
<path d="M46 27C47.056 27.0114 48.1831 27.0996 49.2216 27.2993C49.5992 27.3719 50.2128 27.7018 50.2495 28.1421C50.3534 29.3891 50.3243 30.6388 50.3243 31.8914" stroke="#CC8C18" stroke-width="3" stroke-linecap="round"/>
</svg>
