<svg xmlns="http://www.w3.org/2000/svg" width="105" height="100" fill="none" viewBox="0 0 105 100"><rect width="104.762" height="100" fill="#FAF3E7" rx="50"/><path fill="#CC8C18" d="M77 34.7351C75.16 35.5351 73.185 36.0851 71.11 36.3251C73.23 35.0751 74.85 33.0951 75.62 30.7401C73.5998 31.9174 71.3956 32.7457 69.1 33.1901C68.1344 32.1779 66.9727 31.3731 65.6858 30.8246C64.399 30.2762 63.0139 29.9956 61.615 30.0001C55.95 30.0001 51.36 34.5251 51.36 40.1001C51.36 40.8901 51.45 41.66 51.625 42.4C47.5616 42.2071 43.5831 41.1693 39.9432 39.3528C36.3034 37.5363 33.0821 34.981 30.485 31.8501C29.5728 33.3856 29.0926 35.139 29.095 36.9251C29.095 40.4251 30.91 43.5251 33.66 45.3301C32.0322 45.279 30.4393 44.8457 29.01 44.065V44.1901C29.0254 46.5374 29.854 48.8067 31.3546 50.6118C32.8552 52.4169 34.935 53.6461 37.24 54.0901C35.7268 54.4902 34.1435 54.5482 32.605 54.2601C33.2756 56.2794 34.5584 58.0398 36.2751 59.2969C37.9919 60.554 40.0574 61.2454 42.185 61.2751C38.5348 64.0878 34.0532 65.6075 29.445 65.5951C28.62 65.5951 27.805 65.5451 27 65.4551C31.7024 68.4315 37.1548 70.0079 42.72 70.0001C61.59 70.0001 71.905 54.6101 71.905 41.2601L71.87 39.9501C73.8815 38.5365 75.6196 36.7695 77 34.7351V34.7351Z"/></svg>