<svg width="105" height="100" viewBox="0 0 105 100" fill="none" xmlns="http://www.w3.org/2000/svg">
<rect width="104.762" height="100" rx="50" fill="#FAF3E7"/>
<path d="M66.615 28H37.385C31.65 28 27 32.6 27 38.27V52.72C27 58.395 31.65 62.99 37.385 62.99H66.615C72.35 62.99 77 58.39 77 52.72V38.27C77 32.595 72.35 28 66.615 28ZM59.595 46.2L45.92 52.65C45.8363 52.6895 45.7441 52.7073 45.6517 52.7017C45.5594 52.6961 45.4699 52.6673 45.3916 52.618C45.3134 52.5686 45.2488 52.5003 45.204 52.4194C45.1591 52.3385 45.1354 52.2475 45.135 52.155V38.855C45.1358 38.7613 45.1606 38.6693 45.207 38.5879C45.2533 38.5064 45.3197 38.4382 45.3998 38.3896C45.48 38.341 45.5712 38.3137 45.6649 38.3103C45.7585 38.3068 45.8515 38.3274 45.935 38.37L59.605 45.22C59.6949 45.267 59.77 45.3379 59.8221 45.4249C59.8742 45.5119 59.9013 45.6116 59.9002 45.7131C59.8992 45.8145 59.8701 45.9136 59.8163 45.9996C59.7624 46.0855 59.6858 46.1549 59.595 46.2V46.2Z" fill="#CC8C18"/>
</svg>
