<svg width="72" height="80" viewBox="0 0 72 80" fill="none" xmlns="http://www.w3.org/2000/svg">
<path d="M59.24 9.88C58.92 9.88 58.6 9.8 58.32 9.64C50.64 5.68 44 4 36 4C28.12 4 20.6 5.88 13.76 9.64C12.8 10.16 11.6 9.8 11.04 8.84C10.7905 8.37218 10.7346 7.82516 10.8842 7.31652C11.0338 6.80789 11.377 6.37826 11.84 6.12C19.28 2 27.44 0 36 0C44.56 0 52 1.88 60.16 6C61.16 6.6 61.52 7.8 61 8.76C60.8458 9.09646 60.5976 9.38118 60.2854 9.57989C59.9731 9.77859 59.6101 9.88281 59.24 9.88ZM1.99998 30.88C1.59998 30.88 1.19998 30.76 0.839979 30.52C0.417487 30.2029 0.132363 29.7361 0.0431069 29.2155C-0.0461496 28.6948 0.0672279 28.1597 0.359978 27.72C4.31998 22.12 9.35998 17.72 15.36 14.64C28 8.16 44 8.12 56.6 14.6C62.6 17.68 67.64 22 71.6 27.6C72.24 28.48 72 29.76 71.12 30.4C70.2 31.04 68.96 30.84 68.32 30C64.8428 24.998 60.1851 20.9311 54.76 18.16C43.28 12.28 28.6 12.28 17.16 18.2C11.72 21 7.15998 25 3.55998 30C3.23998 30.6 2.63998 30.88 1.99998 30.88ZM27 79.16C26.48 79.16 26 78.96 25.6 78.56C22.12 75.08 20.24 72.84 17.56 68C14.8 63.08 13.36 57.08 13.36 50.64C13.36 38.76 23.52 29.08 36 29.08C48.48 29.08 58.64 38.76 58.64 50.64C58.64 51.1704 58.4293 51.6791 58.0542 52.0542C57.6791 52.4293 57.1704 52.64 56.64 52.64C56.1095 52.64 55.6008 52.4293 55.2258 52.0542C54.8507 51.6791 54.64 51.1704 54.64 50.64C54.64 40.96 46.28 33.08 36 33.08C25.72 33.08 17.36 40.96 17.36 50.64C17.36 56.4 18.64 61.72 21.08 66C23.64 70.64 25.4 72.6 28.48 75.72C29.24 76.52 29.24 77.76 28.48 78.56C28 78.96 27.52 79.16 27 79.16ZM55.68 71.76C50.92 71.76 46.72 70.56 43.28 68.2C37.32 64.16 33.76 57.6 33.76 50.64C33.76 50.1096 33.9707 49.6009 34.3458 49.2258C34.7208 48.8507 35.2295 48.64 35.76 48.64C36.2904 48.64 36.7991 48.8507 37.1742 49.2258C37.5493 49.6009 37.76 50.1096 37.76 50.64C37.76 56.28 40.64 61.6 45.52 64.88C48.36 66.8 51.68 67.72 55.68 67.72C56.64 67.72 58.24 67.6 59.84 67.32C60.92 67.12 62 67.84 62.16 68.96C62.36 70 61.64 71.08 60.52 71.28C58.24 71.72 56.24 71.76 55.68 71.76ZM47.64 80H47.12C40.76 78.16 36.6 75.8 32.24 71.52C29.474 68.7942 27.2812 65.5428 25.7905 61.9569C24.2998 58.3711 23.5415 54.5233 23.56 50.64C23.56 44.16 29.08 38.88 35.88 38.88C42.68 38.88 48.2 44.16 48.2 50.64C48.2 54.92 52 58.4 56.52 58.4C61.12 58.4 64.84 54.92 64.84 50.64C64.84 35.56 51.84 23.32 35.84 23.32C24.48 23.32 14 29.64 9.39998 39.44C7.83998 42.68 7.03998 46.48 7.03998 50.64C7.03998 53.76 7.31998 58.68 9.71998 65.08C10.12 66.12 9.59998 67.28 8.55998 67.64C8.06622 67.8179 7.52255 67.7963 7.04451 67.5796C6.56647 67.363 6.19175 66.9685 5.99998 66.48C3.99998 61.24 3.07998 56 3.07998 50.64C3.07998 45.84 3.99998 41.48 5.79998 37.68C11.12 26.52 22.92 19.28 35.84 19.28C54 19.28 68.84 33.32 68.84 50.6C68.84 57.08 63.32 62.36 56.52 62.36C49.72 62.36 44.2 57.08 44.2 50.6C44.2 46.32 40.48 42.84 35.88 42.84C31.28 42.84 27.56 46.32 27.56 50.6C27.56 57.44 30.2 63.84 35.04 68.64C38.84 72.4 42.48 74.48 48.12 76C49.2 76.32 49.8 77.44 49.52 78.48C49.32 79.4 48.48 80 47.64 80Z" fill="white"/>
</svg>
