<svg width="40" height="40" viewBox="0 0 40 40" fill="none" xmlns="http://www.w3.org/2000/svg">
<circle cx="20" cy="20" r="19.5" stroke="#CECFD1"/>
<path d="M28.1712 18.3679H27.5V18.3333H20V21.6666H24.7096C24.0225 23.607 22.1762 25 20 25C17.2387 25 15 22.7612 15 20C15 17.2387 17.2387 15 20 15C21.2746 15 22.4342 15.4808 23.3171 16.2662L25.6742 13.9091C24.1858 12.522 22.195 11.6666 20 11.6666C15.3979 11.6666 11.6667 15.3979 11.6667 20C11.6667 24.602 15.3979 28.3333 20 28.3333C24.6021 28.3333 28.3333 24.602 28.3333 20C28.3333 19.4412 28.2758 18.8958 28.1712 18.3679Z" fill="#FFC107"/>
<path d="M12.6275 16.1212L15.3654 18.1291C16.1063 16.295 17.9004 15 20 15C21.2746 15 22.4342 15.4808 23.3171 16.2662L25.6742 13.9091C24.1858 12.522 22.195 11.6666 20 11.6666C16.7992 11.6666 14.0233 13.4737 12.6275 16.1212Z" fill="#FF3D00"/>
<path d="M20 28.3333C22.1525 28.3333 24.1083 27.5095 25.5871 26.1699L23.0079 23.9874C22.1431 24.6451 21.0864 25.0008 20 24.9999C17.8325 24.9999 15.9921 23.6178 15.2987 21.6891L12.5812 23.7828C13.9604 26.4816 16.7612 28.3333 20 28.3333Z" fill="#4CAF50"/>
<path d="M28.1713 18.3678H27.5V18.3333H20V21.6666H24.7096C24.3809 22.5901 23.7889 23.3971 23.0067 23.9878L23.0079 23.987L25.5871 26.1695C25.4046 26.3353 28.3333 24.1666 28.3333 19.9999C28.3333 19.4412 28.2758 18.8958 28.1713 18.3678Z" fill="#1976D2"/>
</svg>
