<svg xmlns="http://www.w3.org/2000/svg" width="40" height="40" fill="none" viewBox="0 0 40 40"><circle cx="20" cy="20" r="19.5" stroke="#CECFD1"/><path fill="#067CB6" d="M15.6321 28V17.2048H12.2024V28H15.6321ZM13.9177 15.73C15.1137 15.73 15.8582 14.9011 15.8582 13.8652C15.8359 12.8059 15.1138 12 13.9404 12C12.7672 12 12 12.806 12 13.8652C12 14.9011 12.7443 15.73 13.8953 15.73H13.9176H13.9177ZM17.5305 28H20.9603V21.9714C20.9603 21.6488 20.9826 21.3265 21.0732 21.0959C21.3211 20.4512 21.8855 19.7836 22.8329 19.7836C24.074 19.7836 24.5705 20.7735 24.5705 22.2247V27.9999H28.0001V21.8101C28.0001 18.4942 26.308 16.9514 24.0514 16.9514C22.2012 16.9514 21.3888 18.0333 20.9375 18.7702H20.9604V17.2046H17.5306C17.5756 18.2176 17.5306 27.9998 17.5306 27.9998L17.5305 28Z"/></svg>