<svg width="85" height="20" viewBox="0 0 85 20" fill="none" xmlns="http://www.w3.org/2000/svg">
<circle cx="10" cy="10" r="10" fill="#4ED32D"/>
<circle cx="43" cy="10" r="10" fill="#4ED32D"/>
<circle cx="75" cy="10" r="10" fill="#D9D9D9"/>
<line x1="20" y1="9.5" x2="33" y2="9.5" stroke="#D9D9D9"/>
<line x1="53" y1="9.5" x2="66" y2="9.5" stroke="#D9D9D9"/>
<path d="M10.3168 7.90909V13H9.70028V8.5554H9.67045L8.42756 9.38068V8.75426L9.70028 7.90909H10.3168Z" fill="white"/>
<path d="M41.527 12V11.5526L43.2074 9.71307C43.4046 9.49763 43.567 9.31037 43.6946 9.15128C43.8222 8.99053 43.9167 8.83973 43.978 8.69886C44.041 8.55634 44.0724 8.4072 44.0724 8.25142C44.0724 8.07244 44.0294 7.9175 43.9432 7.78658C43.8587 7.65566 43.7427 7.55457 43.5952 7.48331C43.4477 7.41205 43.282 7.37642 43.098 7.37642C42.9025 7.37642 42.7318 7.41702 42.5859 7.49822C42.4418 7.57777 42.3299 7.68963 42.2504 7.83381C42.1725 7.97798 42.1335 8.14702 42.1335 8.34091H41.5469C41.5469 8.04261 41.6156 7.78078 41.7532 7.5554C41.8907 7.33002 42.078 7.15436 42.315 7.02841C42.5536 6.90246 42.8213 6.83949 43.1179 6.83949C43.4162 6.83949 43.6805 6.90246 43.9109 7.02841C44.1412 7.15436 44.3219 7.32422 44.4528 7.538C44.5837 7.75178 44.6491 7.98958 44.6491 8.25142C44.6491 8.43868 44.6152 8.6218 44.5472 8.80078C44.4809 8.9781 44.3649 9.17614 44.1992 9.39489C44.0352 9.61198 43.8073 9.87713 43.5156 10.1903L42.3722 11.4134V11.4531H44.7386V12H41.527Z" fill="white"/>
<path d="M41.527 12V11.5526L43.2074 9.71307C43.4046 9.49763 43.567 9.31037 43.6946 9.15128C43.8222 8.99053 43.9167 8.83973 43.978 8.69886C44.041 8.55634 44.0724 8.4072 44.0724 8.25142C44.0724 8.07244 44.0294 7.9175 43.9432 7.78658C43.8587 7.65566 43.7427 7.55457 43.5952 7.48331C43.4477 7.41205 43.282 7.37642 43.098 7.37642C42.9025 7.37642 42.7318 7.41702 42.5859 7.49822C42.4418 7.57777 42.3299 7.68963 42.2504 7.83381C42.1725 7.97798 42.1335 8.14702 42.1335 8.34091H41.5469C41.5469 8.04261 41.6156 7.78078 41.7532 7.5554C41.8907 7.33002 42.078 7.15436 42.315 7.02841C42.5536 6.90246 42.8213 6.83949 43.1179 6.83949C43.4162 6.83949 43.6805 6.90246 43.9109 7.02841C44.1412 7.15436 44.3219 7.32422 44.4528 7.538C44.5837 7.75178 44.6491 7.98958 44.6491 8.25142C44.6491 8.43868 44.6152 8.6218 44.5472 8.80078C44.4809 8.9781 44.3649 9.17614 44.1992 9.39489C44.0352 9.61198 43.8073 9.87713 43.5156 10.1903L42.3722 11.4134V11.4531H44.7386V12H41.527Z" fill="white"/>
<path d="M75.2472 12.0696C74.919 12.0696 74.6265 12.0133 74.3697 11.9006C74.1145 11.7879 73.9115 11.6313 73.7607 11.4308C73.6115 11.2286 73.5303 10.9941 73.517 10.7273H74.1435C74.1567 10.8913 74.2131 11.033 74.3125 11.1523C74.4119 11.27 74.542 11.3612 74.7028 11.4258C74.8635 11.4904 75.0417 11.5227 75.2372 11.5227C75.456 11.5227 75.6499 11.4846 75.8189 11.4084C75.9879 11.3321 76.1205 11.2261 76.2166 11.0902C76.3127 10.9543 76.3608 10.7969 76.3608 10.6179C76.3608 10.4306 76.3144 10.2657 76.2216 10.1232C76.1288 9.97905 75.9929 9.86636 75.8139 9.78516C75.6349 9.70395 75.4162 9.66335 75.1577 9.66335H74.75V9.11648H75.1577C75.3598 9.11648 75.5372 9.08002 75.6896 9.0071C75.8438 8.93419 75.9639 8.83144 76.0501 8.69886C76.1379 8.56629 76.1818 8.41051 76.1818 8.23153C76.1818 8.05919 76.1437 7.90921 76.0675 7.7816C75.9912 7.654 75.8835 7.55457 75.7443 7.48331C75.6068 7.41205 75.4444 7.37642 75.2571 7.37642C75.0814 7.37642 74.9157 7.40874 74.7599 7.47337C74.6058 7.53634 74.4799 7.62831 74.3821 7.74929C74.2843 7.86861 74.2313 8.01278 74.223 8.18182H73.6264C73.6364 7.91501 73.7167 7.68134 73.8675 7.48082C74.0183 7.27865 74.2156 7.12121 74.4592 7.00852C74.7044 6.89583 74.9737 6.83949 75.267 6.83949C75.5819 6.83949 75.852 6.90329 76.0774 7.03089C76.3028 7.15684 76.476 7.32339 76.5969 7.53054C76.7179 7.73769 76.7784 7.96141 76.7784 8.2017C76.7784 8.4884 76.703 8.73284 76.5522 8.93501C76.4031 9.13719 76.2 9.27723 75.9432 9.35511V9.39489C76.2647 9.44792 76.5157 9.58464 76.6964 9.80504C76.877 10.0238 76.9673 10.2947 76.9673 10.6179C76.9673 10.8946 76.8919 11.1432 76.7411 11.3636C76.592 11.5824 76.3881 11.7547 76.1296 11.8807C75.8711 12.0066 75.5769 12.0696 75.2472 12.0696Z" fill="#262525"/>
</svg>
