<svg width="353" height="84" viewBox="0 0 353 84" fill="none" xmlns="http://www.w3.org/2000/svg">
<line x1="42" y1="41.5" x2="330" y2="41.5" stroke="black"/>
<circle cx="42" cy="42" r="42" fill="#34AB16"/>
<path d="M41.5071 30.4545V45H38.4318V33.3736H38.3466L35.0156 35.4616V32.7344L38.6165 30.4545H41.5071Z" fill="white"/>
<circle cx="167" cy="42" r="42" fill="#D3D3D3"/>
<path d="M160.179 45V42.7841L165.357 37.9901C165.797 37.5639 166.166 37.1804 166.464 36.8395C166.768 36.4986 166.997 36.1648 167.153 35.8381C167.31 35.5066 167.388 35.1491 167.388 34.7656C167.388 34.3395 167.291 33.9725 167.097 33.6648C166.902 33.3523 166.637 33.1132 166.301 32.9474C165.965 32.777 165.584 32.6918 165.158 32.6918C164.713 32.6918 164.324 32.7817 163.993 32.9616C163.661 33.1416 163.406 33.3996 163.226 33.7358C163.046 34.072 162.956 34.4721 162.956 34.9361H160.037C160.037 33.9844 160.252 33.1581 160.683 32.4574C161.114 31.7566 161.718 31.2145 162.494 30.831C163.271 30.4474 164.166 30.2557 165.179 30.2557C166.221 30.2557 167.127 30.4403 167.899 30.8097C168.676 31.1742 169.279 31.6809 169.71 32.3295C170.141 32.9782 170.357 33.7216 170.357 34.5597C170.357 35.1089 170.248 35.651 170.03 36.1861C169.817 36.7211 169.436 37.3153 168.886 37.9688C168.337 38.6174 167.563 39.3963 166.564 40.3054L164.44 42.3864V42.4858H170.548V45H160.179Z" fill="black"/>
<circle cx="311" cy="42" r="42" fill="#D3D3D3"/>
<path d="M300 42.2667L307.233 49.5L321.7 34" stroke="black" stroke-width="1.5" stroke-linecap="round" stroke-linejoin="round"/>
</svg>
